<svg xmlns="http://www.w3.org/2000/svg" width="1200" height="700" viewBox="0 0 1200 700" role="img" aria-labelledby="title desc">
<title id="title">Trajectory means versus exact quantum dynamics</title>
<desc id="desc">Trajectory means versus exact quantum dynamics</desc>
<rect width="100%" height="100%" fill="#fbfcfe"/>
<style>
  text { font-family: Inter, ui-sans-serif, -apple-system, BlinkMacSystemFont, "Segoe UI", sans-serif; fill: #172033; }
  .tick { font-size: 17px; fill: #5e6a7d; }
  .axis-label { font-size: 21px; font-weight: 600; }
  .title { font-size: 29px; font-weight: 700; }
  .subtitle { font-size: 17px; fill: #5e6a7d; }
  .legend { font-size: 17px; }
</style>
<text x="75" y="47" class="title">Trajectory means versus exact quantum dynamics</text>
<text x="75" y="77" class="subtitle">Original center sweep at qx,0/(a/2) = 0.5; four-seed trajectory means versus exact quantum dynamics</text>
<line x1="80" y1="570.00" x2="555" y2="570.00" stroke="#d9dee8"/>
<text x="67" y="576.00" text-anchor="end" class="tick">0</text>
<line x1="80" y1="441.88" x2="555" y2="441.88" stroke="#d9dee8"/>
<text x="67" y="447.88" text-anchor="end" class="tick">0.1</text>
<line x1="80" y1="313.75" x2="555" y2="313.75" stroke="#d9dee8"/>
<text x="67" y="319.75" text-anchor="end" class="tick">0.2</text>
<line x1="80" y1="185.62" x2="555" y2="185.62" stroke="#d9dee8"/>
<text x="67" y="191.62" text-anchor="end" class="tick">0.3</text>
<line x1="80.00" y1="160" x2="80.00" y2="570" stroke="#d9dee8"/>
<text x="80.00" y="599" text-anchor="middle" class="tick">0</text>
<line x1="198.75" y1="160" x2="198.75" y2="570" stroke="#d9dee8"/>
<text x="198.75" y="599" text-anchor="middle" class="tick">5</text>
<line x1="317.50" y1="160" x2="317.50" y2="570" stroke="#d9dee8"/>
<text x="317.50" y="599" text-anchor="middle" class="tick">10</text>
<line x1="436.25" y1="160" x2="436.25" y2="570" stroke="#d9dee8"/>
<text x="436.25" y="599" text-anchor="middle" class="tick">15</text>
<line x1="555.00" y1="160" x2="555.00" y2="570" stroke="#d9dee8"/>
<text x="555.00" y="599" text-anchor="middle" class="tick">20</text>
<line x1="80" y1="570" x2="555" y2="570" stroke="#172033" stroke-width="2"/>
<line x1="80" y1="160" x2="80" y2="570" stroke="#172033" stroke-width="2"/>
<text x="80" y="142" font-size="22" font-weight="700">A  Electronic population</text>
<text x="317.50" y="633" text-anchor="middle" class="axis-label">time (fs)</text>
<text x="15" y="365.00" text-anchor="middle" class="axis-label" transform="rotate(-90 15 365.00)">upper population</text>
<polyline points="80.00,183.35 80.59,183.36 81.19,183.41 81.78,183.48 82.38,183.58 82.97,183.71 83.56,183.87 84.16,184.05 84.75,184.27 85.34,184.51 85.94,184.78 86.53,185.09 87.12,185.42 87.72,185.78 88.31,186.16 88.91,186.58 89.50,187.03 90.09,187.50 90.69,188.00 91.28,188.54 91.88,189.10 92.47,189.69 93.06,190.31 93.66,190.96 94.25,191.63 94.84,192.34 95.44,193.08 96.03,193.84 96.62,194.63 97.22,195.46 97.81,196.31 98.41,197.19 99.00,198.10 99.59,199.05 100.19,200.02 100.78,201.02 101.38,202.04 101.97,203.10 102.56,204.19 103.16,205.31 103.75,206.46 104.34,207.63 104.94,208.84 105.53,210.08 106.12,211.34 106.72,212.64 107.31,213.97 107.91,215.32 108.50,216.71 109.09,218.12 109.69,219.57 110.28,221.04 110.88,222.55 111.47,224.08 112.06,225.65 112.66,227.24 113.25,228.87 113.84,230.52 114.44,232.21 115.03,233.92 115.62,235.66 116.22,237.44 116.81,239.24 117.41,241.07 118.00,242.94 118.59,244.83 119.19,246.75 119.78,248.70 120.38,250.68 120.97,252.69 121.56,254.72 122.16,256.79 122.75,258.88 123.34,261.00 123.94,263.15 124.53,265.33 125.12,267.54 125.72,269.77 126.31,272.03 126.91,274.32 127.50,276.64 128.09,278.98 128.69,281.34 129.28,283.74 129.88,286.15 130.47,288.60 131.06,291.06 131.66,293.56 132.25,296.07 132.84,298.61 133.44,301.17 134.03,303.75 134.62,306.36 135.22,308.98 135.81,311.63 136.41,314.30 137.00,316.98 137.59,319.68 138.19,322.41 138.78,325.15 139.38,327.90 139.97,330.67 140.56,333.46 141.16,336.26 141.75,339.07 142.34,341.90 142.94,344.74 143.53,347.59 144.12,350.45 144.72,353.31 145.31,356.19 145.91,359.07 146.50,361.96 147.09,364.86 147.69,367.75 148.28,370.66 148.88,373.56 149.47,376.46 150.06,379.37 150.66,382.27 151.25,385.17 151.84,388.07 152.44,390.97 153.03,393.85 153.62,396.74 154.22,399.61 154.81,402.47 155.41,405.33 156.00,408.17 156.59,411.01 157.19,413.83 157.78,416.63 158.38,419.42 158.97,422.19 159.56,424.95 160.16,427.69 160.75,430.40 161.34,433.10 161.94,435.78 162.53,438.43 163.12,441.06 163.72,443.67 164.31,446.25 164.91,448.80 165.50,451.33 166.09,453.83 166.69,456.30 167.28,458.75 167.88,461.16 168.47,463.54 169.06,465.90 169.66,468.22 170.25,470.50 170.84,472.76 171.44,474.98 172.03,477.17 172.62,479.32 173.22,481.44 173.81,483.53 174.41,485.58 175.00,487.59 175.59,489.57 176.19,491.52 176.78,493.42 177.38,495.29 177.97,497.13 178.56,498.93 179.16,500.69 179.75,502.42 180.34,504.11 180.94,505.77 181.53,507.39 182.12,508.97 182.72,510.52 183.31,512.04 183.91,513.52 184.50,514.96 185.09,516.37 185.69,517.75 186.28,519.09 186.88,520.41 187.47,521.68 188.06,522.93 188.66,524.15 189.25,525.33 189.84,526.48 190.44,527.60 191.03,528.70 191.62,529.76 192.22,530.80 192.81,531.80 193.41,532.78 194.00,533.74 194.59,534.66 195.19,535.56 195.78,536.44 196.38,537.29 196.97,538.11 197.56,538.91 198.16,539.69 198.75,540.45 199.34,541.18 199.94,541.90 200.53,542.59 201.12,543.26 201.72,543.91 202.31,544.55 202.91,545.16 203.50,545.76 204.09,546.34 204.69,546.90 205.28,547.44 205.88,547.97 206.47,548.49 207.06,548.98 207.66,549.47 208.25,549.94 208.84,550.39 209.44,550.83 210.03,551.26 210.62,551.68 211.22,552.08 211.81,552.47 212.41,552.85 213.00,553.22 213.59,553.58 214.19,553.93 214.78,554.26 215.38,554.59 215.97,554.91 216.56,555.22 217.16,555.52 217.75,555.81 218.34,556.09 218.94,556.37 219.53,556.64 220.13,556.90 220.72,557.15 221.31,557.39 221.91,557.63 222.50,557.86 223.09,558.09 223.69,558.31 224.28,558.52 224.88,558.73 225.47,558.93 226.06,559.12 226.66,559.31 227.25,559.50 227.84,559.68 228.44,559.85 229.03,560.02 229.63,560.19 230.22,560.35 230.81,560.50 231.41,560.66 232.00,560.80 232.59,560.95 233.19,561.09 233.78,561.23 234.38,561.36 234.97,561.49 235.56,561.61 236.16,561.74 236.75,561.86 237.34,561.97 237.94,562.09 238.53,562.20 239.12,562.31 239.72,562.41 240.31,562.51 240.91,562.61 241.50,562.71 242.09,562.80 242.69,562.90 243.28,562.99 243.88,563.07 244.47,563.16 245.06,563.24 245.66,563.32 246.25,563.40 246.84,563.48 247.44,563.55 248.03,563.63 248.63,563.70 249.22,563.77 249.81,563.84 250.41,563.90 251.00,563.97 251.59,564.03 252.19,564.10 252.78,564.16 253.38,564.22 253.97,564.27 254.56,564.33 255.16,564.39 255.75,564.44 256.34,564.49 256.94,564.55 257.53,564.60 258.12,564.65 258.72,564.70 259.31,564.74 259.91,564.79 260.50,564.84 261.09,564.88 261.69,564.93 262.28,564.97 262.88,565.01 263.47,565.06 264.06,565.10 264.66,565.14 265.25,565.18 265.84,565.22 266.44,565.25 267.03,565.29 267.62,565.33 268.22,565.37 268.81,565.40 269.41,565.44 270.00,565.47 270.59,565.51 271.19,565.54 271.78,565.58 272.38,565.61 272.97,565.64 273.56,565.68 274.16,565.71 274.75,565.74 275.34,565.77 275.94,565.80 276.53,565.83 277.12,565.86 277.72,565.89 278.31,565.92 278.91,565.95 279.50,565.98 280.09,566.01 280.69,566.04 281.28,566.07 281.88,566.10 282.47,566.13 283.06,566.15 283.66,566.18 284.25,566.21 284.84,566.24 285.44,566.26 286.03,566.29 286.62,566.32 287.22,566.34 287.81,566.37 288.41,566.40 289.00,566.42 289.59,566.45 290.19,566.47 290.78,566.50 291.38,566.52 291.97,566.55 292.56,566.58 293.16,566.60 293.75,566.62 294.34,566.65 294.94,566.67 295.53,566.70 296.12,566.72 296.72,566.75 297.31,566.77 297.91,566.79 298.50,566.82 299.09,566.84 299.69,566.86 300.28,566.88 300.88,566.91 301.47,566.93 302.06,566.95 302.66,566.97 303.25,566.99 303.84,567.01 304.44,567.03 305.03,567.06 305.62,567.08 306.22,567.10 306.81,567.12 307.41,567.14 308.00,567.15 308.59,567.17 309.19,567.19 309.78,567.21 310.38,567.23 310.97,567.25 311.56,567.26 312.16,567.28 312.75,567.30 313.34,567.31 313.94,567.33 314.53,567.34 315.12,567.36 315.72,567.37 316.31,567.39 316.91,567.40 317.50,567.41 318.09,567.42 318.69,567.44 319.28,567.45 319.88,567.46 320.47,567.47 321.06,567.48 321.66,567.49 322.25,567.50 322.84,567.51 323.44,567.52 324.03,567.52 324.62,567.53 325.22,567.54 325.81,567.54 326.41,567.55 327.00,567.55 327.59,567.55 328.19,567.56 328.78,567.56 329.38,567.56 329.97,567.56 330.56,567.56 331.16,567.56 331.75,567.56 332.34,567.56 332.94,567.56 333.53,567.55 334.12,567.55 334.72,567.55 335.31,567.54 335.91,567.54 336.50,567.53 337.09,567.52 337.69,567.51 338.28,567.50 338.88,567.49 339.47,567.48 340.06,567.47 340.66,567.46 341.25,567.45 341.84,567.43 342.44,567.42 343.03,567.40 343.62,567.39 344.22,567.37 344.81,567.35 345.41,567.33 346.00,567.31 346.59,567.29 347.19,567.27 347.78,567.24 348.38,567.22 348.97,567.20 349.56,567.17 350.16,567.14 350.75,567.12 351.34,567.09 351.94,567.06 352.53,567.03 353.12,567.00 353.72,566.96 354.31,566.93 354.91,566.90 355.50,566.86 356.09,566.82 356.69,566.79 357.28,566.75 357.88,566.71 358.47,566.66 359.06,566.62 359.66,566.58 360.25,566.53 360.84,566.49 361.44,566.44 362.03,566.39 362.62,566.34 363.22,566.29 363.81,566.24 364.41,566.18 365.00,566.13 365.59,566.07 366.19,566.01 366.78,565.95 367.38,565.89 367.97,565.83 368.56,565.76 369.16,565.70 369.75,565.63 370.34,565.56 370.94,565.49 371.53,565.41 372.12,565.34 372.72,565.26 373.31,565.18 373.91,565.10 374.50,565.02 375.09,564.94 375.69,564.85 376.28,564.77 376.88,564.68 377.47,564.58 378.06,564.49 378.66,564.39 379.25,564.29 379.84,564.19 380.44,564.09 381.03,563.98 381.62,563.88 382.22,563.77 382.81,563.65 383.41,563.54 384.00,563.42 384.59,563.30 385.19,563.17 385.78,563.05 386.38,562.92 386.97,562.78 387.56,562.65 388.16,562.51 388.75,562.37 389.34,562.22 389.94,562.07 390.53,561.92 391.12,561.77 391.72,561.61 392.31,561.44 392.91,561.28 393.50,561.11 394.09,560.93 394.69,560.75 395.28,560.57 395.88,560.38 396.47,560.19 397.06,560.00 397.66,559.80 398.25,559.59 398.84,559.38 399.44,559.17 400.03,558.94 400.62,558.72 401.22,558.49 401.81,558.25 402.41,558.01 403.00,557.76 403.59,557.50 404.19,557.24 404.78,556.98 405.38,556.70 405.97,556.42 406.56,556.13 407.16,555.84 407.75,555.53 408.34,555.22 408.94,554.90 409.53,554.57 410.13,554.24 410.72,553.89 411.31,553.54 411.91,553.17 412.50,552.80 413.09,552.42 413.69,552.02 414.28,551.62 414.88,551.20 415.47,550.78 416.06,550.34 416.66,549.89 417.25,549.43 417.84,548.95 418.44,548.46 419.03,547.96 419.63,547.44 420.22,546.91 420.81,546.36 421.41,545.80 422.00,545.22 422.59,544.63 423.19,544.01 423.78,543.39 424.38,542.74 424.97,542.07 425.56,541.39 426.16,540.69 426.75,539.96 427.34,539.22 427.94,538.45 428.53,537.67 429.13,536.86 429.72,536.03 430.31,535.17 430.91,534.29 431.50,533.39 432.09,532.46 432.69,531.51 433.28,530.53 433.88,529.52 434.47,528.49 435.06,527.43 435.66,526.34 436.25,525.22 436.84,524.08 437.44,522.90 438.03,521.70 438.63,520.46 439.22,519.19 439.81,517.89 440.41,516.56 441.00,515.20 441.59,513.80 442.19,512.37 442.78,510.91 443.38,509.42 443.97,507.89 444.56,506.32 445.16,504.72 445.75,503.09 446.34,501.43 446.94,499.72 447.53,497.99 448.12,496.22 448.72,494.41 449.31,492.57 449.91,490.69 450.50,488.78 451.09,486.84 451.69,484.86 452.28,482.84 452.88,480.80 453.47,478.71 454.06,476.60 454.66,474.45 455.25,472.27 455.84,470.06 456.44,467.81 457.03,465.54 457.62,463.23 458.22,460.89 458.81,458.53 459.41,456.13 460.00,453.71 460.59,451.26 461.19,448.78 461.78,446.28 462.38,443.75 462.97,441.20 463.56,438.62 464.16,436.03 464.75,433.41 465.34,430.76 465.94,428.10 466.53,425.43 467.12,422.73 467.72,420.01 468.31,417.28 468.91,414.54 469.50,411.78 470.09,409.01 470.69,406.23 471.28,403.44 471.88,400.63 472.47,397.82 473.06,395.01 473.66,392.18 474.25,389.35 474.84,386.52 475.44,383.68 476.03,380.85 476.62,378.01 477.22,375.17 477.81,372.33 478.41,369.49 479.00,366.66 479.59,363.83 480.19,361.01 480.78,358.19 481.38,355.38 481.97,352.58 482.56,349.79 483.16,347.01 483.75,344.23 484.34,341.47 484.94,338.73 485.53,335.99 486.13,333.27 486.72,330.56 487.31,327.87 487.91,325.20 488.50,322.54 489.09,319.90 489.69,317.28 490.28,314.68 490.88,312.10 491.47,309.53 492.06,306.99 492.66,304.47 493.25,301.97 493.84,299.49 494.44,297.04 495.03,294.61 495.62,292.20 496.22,289.82 496.81,287.46 497.41,285.13 498.00,282.82 498.59,280.53 499.19,278.28 499.78,276.04 500.38,273.84 500.97,271.66 501.56,269.51 502.16,267.38 502.75,265.29 503.34,263.22 503.94,261.18 504.53,259.16 505.13,257.18 505.72,255.22 506.31,253.29 506.91,251.39 507.50,249.52 508.09,247.67 508.69,245.86 509.28,244.07 509.88,242.31 510.47,240.59 511.06,238.89 511.66,237.22 512.25,235.57 512.84,233.96 513.44,232.38 514.03,230.83 514.62,229.30 515.22,227.81 515.81,226.34 516.41,224.90 517.00,223.49 517.59,222.12 518.19,220.77 518.78,219.45 519.38,218.15 519.97,216.89 520.56,215.66 521.16,214.45 521.75,213.28 522.34,212.13 522.94,211.02 523.53,209.93 524.12,208.87 524.72,207.84 525.31,206.84 525.91,205.86 526.50,204.92 527.09,204.00 527.69,203.11 528.28,202.26 528.88,201.43 529.47,200.62 530.06,199.85 530.66,199.11 531.25,198.39 531.84,197.70 532.44,197.04 533.03,196.41 533.62,195.81 534.22,195.23 534.81,194.69 535.41,194.17 536.00,193.68 536.59,193.22 537.19,192.78 537.78,192.37 538.38,192.00 538.97,191.65 539.56,191.32 540.16,191.03 540.75,190.76 541.34,190.52 541.94,190.31 542.53,190.13 543.12,189.97 543.72,189.85 544.31,189.75 544.91,189.67 545.50,189.63 546.09,189.61 546.69,189.62 547.28,189.66 547.88,189.73 548.47,189.82 549.06,189.95 549.66,190.10 550.25,190.27 550.84,190.48 551.44,190.71 552.03,190.97 552.62,191.26 553.22,191.58 553.81,191.92 554.41,192.29 555.00,192.69" fill="none" stroke="#111827" stroke-width="5" stroke-linecap="round" stroke-linejoin="round" opacity="1.0"/>
<polyline points="80.00,188.65 80.59,188.55 81.19,188.56 81.78,188.67 82.38,188.64 82.97,188.62 83.56,188.64 84.16,188.73 84.75,188.75 85.34,188.83 85.94,188.75 86.53,188.78 87.12,188.74 87.72,188.69 88.31,188.66 88.91,188.61 89.50,188.74 90.09,188.81 90.69,188.85 91.28,188.87 91.88,188.91 92.47,188.85 93.06,188.71 93.66,188.76 94.25,188.78 94.84,188.77 95.44,188.90 96.03,189.13 96.62,189.24 97.22,189.34 97.81,189.46 98.41,189.63 99.00,189.66 99.59,189.76 100.19,189.92 100.78,190.16 101.38,190.54 101.97,190.90 102.56,191.32 103.16,191.69 103.75,191.97 104.34,192.50 104.94,193.04 105.53,193.68 106.12,194.63 106.72,195.48 107.31,196.21 107.91,196.91 108.50,197.66 109.09,198.37 109.69,199.15 110.28,199.79 110.88,200.54 111.47,201.35 112.06,202.30 112.66,203.25 113.25,204.20 113.84,205.22 114.44,206.19 115.03,207.16 115.62,208.18 116.22,209.32 116.81,210.58 117.41,211.81 118.00,212.80 118.59,213.84 119.19,214.83 119.78,215.81 120.38,217.07 120.97,218.29 121.56,219.41 122.16,220.55 122.75,221.88 123.34,223.43 123.94,225.02 124.53,226.29 125.12,227.55 125.72,228.83 126.31,230.24 126.91,231.64 127.50,233.25 128.09,234.87 128.69,236.34 129.28,237.97 129.88,239.71 130.47,241.35 131.06,242.81 131.66,244.33 132.25,246.07 132.84,247.95 133.44,249.77 134.03,251.88 134.62,253.92 135.22,255.82 135.81,257.93 136.41,259.98 137.00,262.17 137.59,264.33 138.19,266.59 138.78,268.76 139.38,271.21 139.97,273.65 140.56,276.10 141.16,278.46 141.75,280.86 142.34,283.36 142.94,285.71 143.53,288.36 144.12,290.94 144.72,293.41 145.31,295.96 145.91,298.56 146.50,301.23 147.09,303.63 147.69,306.23 148.28,308.80 148.88,311.64 149.47,314.40 150.06,317.09 150.66,320.03 151.25,323.04 151.84,325.99 152.44,328.92 153.03,331.71 153.62,334.49 154.22,337.39 154.81,340.22 155.41,343.01 156.00,345.81 156.59,348.73 157.19,351.21 157.78,353.62 158.38,355.94 158.97,358.48 159.56,361.23 160.16,363.91 160.75,366.81 161.34,369.63 161.94,372.20 162.53,374.67 163.12,377.23 163.72,379.73 164.31,382.41 164.91,385.02 165.50,387.59 166.09,390.30 166.69,392.70 167.28,395.12 167.88,397.71 168.47,400.31 169.06,402.72 169.66,405.08 170.25,407.44 170.84,409.70 171.44,412.26 172.03,414.60 172.62,416.89 173.22,419.14 173.81,421.09 174.41,423.06 175.00,425.05 175.59,426.95 176.19,428.85 176.78,430.85 177.38,432.97 177.97,435.12 178.56,437.06 179.16,438.90 179.75,440.60 180.34,442.23 180.94,443.76 181.53,445.46 182.12,447.02 182.72,448.61 183.31,450.15 183.91,451.84 184.50,453.59 185.09,455.13 185.69,456.77 186.28,458.13 186.88,459.66 187.47,461.13 188.06,462.56 188.66,464.03 189.25,465.41 189.84,466.80 190.44,468.01 191.03,469.23 191.62,470.55 192.22,471.73 192.81,472.79 193.41,473.90 194.00,475.07 194.59,476.13 195.19,477.32 195.78,478.42 196.38,479.62 196.97,480.79 197.56,481.97 198.16,483.06 198.75,484.06 199.34,484.99 199.94,485.83 200.53,486.63 201.12,487.47 201.72,488.37 202.31,489.40 202.91,490.48 203.50,491.60 204.09,492.73 204.69,493.76 205.28,494.77 205.88,495.71 206.47,496.64 207.06,497.59 207.66,498.39 208.25,499.20 208.84,500.09 209.44,500.91 210.03,501.74 210.62,502.56 211.22,503.31 211.81,504.08 212.41,504.86 213.00,505.63 213.59,506.32 214.19,507.07 214.78,507.85 215.38,508.57 215.97,509.46 216.56,510.12 217.16,510.72 217.75,511.33 218.34,511.96 218.94,512.62 219.53,513.19 220.13,513.72 220.72,514.28 221.31,514.76 221.91,515.28 222.50,515.84 223.09,516.35 223.69,516.85 224.28,517.38 224.88,517.98 225.47,518.64 226.06,519.32 226.66,519.98 227.25,520.53 227.84,521.02 228.44,521.45 229.03,521.88 229.63,522.34 230.22,522.78 230.81,523.21 231.41,523.74 232.00,524.30 232.59,524.87 233.19,525.46 233.78,526.01 234.38,526.44 234.97,526.85 235.56,527.25 236.16,527.59 236.75,527.97 237.34,528.37 237.94,528.75 238.53,529.12 239.12,529.48 239.72,529.83 240.31,530.18 240.91,530.54 241.50,530.88 242.09,531.22 242.69,531.70 243.28,532.12 243.88,532.60 244.47,532.98 245.06,533.41 245.66,533.78 246.25,534.11 246.84,534.44 247.44,534.79 248.03,535.17 248.63,535.53 249.22,535.83 249.81,536.09 250.41,536.32 251.00,536.55 251.59,536.80 252.19,537.10 252.78,537.49 253.38,537.78 253.97,538.08 254.56,538.57 255.16,538.98 255.75,539.41 256.34,539.76 256.94,540.08 257.53,540.37 258.12,540.64 258.72,540.91 259.31,541.19 259.91,541.51 260.50,541.83 261.09,542.13 261.69,542.42 262.28,542.71 262.88,543.00 263.47,543.29 264.06,543.59 264.66,543.84 265.25,544.10 265.84,544.44 266.44,544.71 267.03,544.97 267.62,545.26 268.22,545.56 268.81,545.82 269.41,546.07 270.00,546.31 270.59,546.61 271.19,546.84 271.78,547.05 272.38,547.23 272.97,547.41 273.56,547.60 274.16,547.80 274.75,548.04 275.34,548.26 275.94,548.45 276.53,548.67 277.12,548.88 277.72,549.09 278.31,549.34 278.91,549.58 279.50,549.82 280.09,550.03 280.69,550.21 281.28,550.38 281.88,550.63 282.47,550.80 283.06,550.97 283.66,551.14 284.25,551.44 284.84,551.64 285.44,551.82 286.03,552.03 286.62,552.19 287.22,552.35 287.81,552.54 288.41,552.75 289.00,552.96 289.59,553.18 290.19,553.45 290.78,553.69 291.38,553.88 291.97,554.08 292.56,554.27 293.16,554.47 293.75,554.67 294.34,554.87 294.94,555.03 295.53,555.21 296.12,555.39 296.72,555.56 297.31,555.80 297.91,555.99 298.50,556.18 299.09,556.31 299.69,556.44 300.28,556.60 300.88,556.75 301.47,556.92 302.06,557.08 302.66,557.22 303.25,557.43 303.84,557.57 304.44,557.72 305.03,557.84 305.62,557.94 306.22,558.18 306.81,558.39 307.41,558.62 308.00,558.77 308.59,558.88 309.19,559.01 309.78,559.14 310.38,559.28 310.97,559.43 311.56,559.58 312.16,559.73 312.75,559.85 313.34,559.97 313.94,560.08 314.53,560.16 315.12,560.23 315.72,560.31 316.31,560.37 316.91,560.42 317.50,560.48 318.09,560.53 318.69,560.61 319.28,560.74 319.88,560.91 320.47,561.14 321.06,561.27 321.66,561.43 322.25,561.49 322.84,561.54 323.44,561.55 324.03,561.58 324.62,561.63 325.22,561.65 325.81,561.65 326.41,561.64 327.00,561.62 327.59,561.61 328.19,561.60 328.78,561.59 329.38,561.65 329.97,561.64 330.56,561.64 331.16,561.64 331.75,561.74 332.34,561.83 332.94,561.85 333.53,561.90 334.12,561.97 334.72,562.03 335.31,562.05 335.91,562.08 336.50,562.15 337.09,562.22 337.69,562.27 338.28,562.29 338.88,562.30 339.47,562.33 340.06,562.37 340.66,562.37 341.25,562.33 341.84,562.27 342.44,562.33 343.03,562.46 343.62,562.50 344.22,562.55 344.81,562.61 345.41,562.69 346.00,562.71 346.59,562.75 347.19,562.85 347.78,562.89 348.38,562.89 348.97,562.89 349.56,562.88 350.16,562.88 350.75,562.87 351.34,562.89 351.94,562.96 352.53,562.96 353.12,562.88 353.72,562.88 354.31,562.88 354.91,562.93 355.50,562.98 356.09,562.99 356.69,563.00 357.28,562.99 357.88,562.98 358.47,562.95 359.06,562.92 359.66,562.89 360.25,562.86 360.84,562.78 361.44,562.77 362.03,562.75 362.62,562.82 363.22,562.83 363.81,562.83 364.41,562.80 365.00,562.77 365.59,562.75 366.19,562.73 366.78,562.73 367.38,562.79 367.97,562.79 368.56,562.76 369.16,562.73 369.75,562.69 370.34,562.64 370.94,562.59 371.53,562.56 372.12,562.54 372.72,562.52 373.31,562.49 373.91,562.38 374.50,562.36 375.09,562.34 375.69,562.32 376.28,562.22 376.88,562.17 377.47,562.13 378.06,562.09 378.66,562.05 379.25,561.99 379.84,561.92 380.44,561.89 381.03,561.85 381.62,561.80 382.22,561.75 382.81,561.69 383.41,561.61 384.00,561.53 384.59,561.44 385.19,561.35 385.78,561.28 386.38,561.18 386.97,561.10 387.56,561.00 388.16,560.92 388.75,560.84 389.34,560.73 389.94,560.55 390.53,560.44 391.12,560.29 391.72,560.15 392.31,560.02 392.91,559.85 393.50,559.62 394.09,559.43 394.69,559.23 395.28,558.97 395.88,558.79 396.47,558.60 397.06,558.39 397.66,558.19 398.25,558.02 398.84,557.84 399.44,557.65 400.03,557.44 400.62,557.19 401.22,557.02 401.81,556.80 402.41,556.61 403.00,556.42 403.59,556.22 404.19,556.00 404.78,555.74 405.38,555.42 405.97,555.19 406.56,554.94 407.16,554.61 407.75,554.27 408.34,553.96 408.94,553.66 409.53,553.34 410.13,552.94 410.72,552.58 411.31,552.24 411.91,551.85 412.50,551.46 413.09,551.06 413.69,550.70 414.28,550.26 414.88,549.90 415.47,549.50 416.06,549.14 416.66,548.69 417.25,548.24 417.84,547.86 418.44,547.44 419.03,547.06 419.63,546.63 420.22,546.25 420.81,545.88 421.41,545.50 422.00,545.11 422.59,544.62 423.19,544.14 423.78,543.72 424.38,543.24 424.97,542.62 425.56,541.98 426.16,541.36 426.75,540.74 427.34,540.19 427.94,539.53 428.53,538.80 429.13,538.21 429.72,537.49 430.31,536.84 430.91,536.10 431.50,535.31 432.09,534.53 432.69,533.71 433.28,532.91 433.88,532.17 434.47,531.39 435.06,530.60 435.66,529.59 436.25,528.37 436.84,527.18 437.44,526.17 438.03,525.02 438.63,523.92 439.22,522.90 439.81,521.89 440.41,520.96 441.00,519.93 441.59,518.72 442.19,517.35 442.78,515.99 443.38,514.61 443.97,513.27 444.56,511.95 445.16,510.66 445.75,509.26 446.34,507.90 446.94,506.42 447.53,504.95 448.12,503.37 448.72,501.80 449.31,500.34 449.91,498.80 450.50,497.23 451.09,495.66 451.69,493.99 452.28,492.25 452.88,490.42 453.47,488.65 454.06,486.56 454.66,484.47 455.25,482.64 455.84,480.81 456.44,479.04 457.03,477.34 457.62,475.35 458.22,473.17 458.81,471.04 459.41,469.12 460.00,467.03 460.59,464.88 461.19,462.61 461.78,460.33 462.38,458.19 462.97,456.06 463.56,453.80 464.16,451.57 464.75,449.32 465.34,447.04 465.94,444.62 466.53,442.29 467.12,440.05 467.72,437.57 468.31,435.02 468.91,432.50 469.50,429.81 470.09,427.02 470.69,424.39 471.28,421.97 471.88,419.58 472.47,417.24 473.06,415.10 473.66,413.13 474.25,410.94 474.84,408.59 475.44,406.56 476.03,404.43 476.62,401.86 477.22,399.40 477.81,397.12 478.41,394.59 479.00,392.34 479.59,390.13 480.19,387.79 480.78,385.41 481.38,382.93 481.97,380.53 482.56,378.06 483.16,375.68 483.75,373.31 484.34,370.94 484.94,368.78 485.53,366.67 486.13,364.46 486.72,362.33 487.31,359.81 487.91,357.22 488.50,354.73 489.09,352.26 489.69,349.97 490.28,347.90 490.88,345.62 491.47,343.37 492.06,341.09 492.66,338.86 493.25,336.82 493.84,334.77 494.44,332.62 495.03,330.42 495.62,328.19 496.22,326.10 496.81,324.04 497.41,322.21 498.00,320.24 498.59,318.22 499.19,316.29 499.78,314.54 500.38,312.87 500.97,311.40 501.56,310.04 502.16,308.63 502.75,307.13 503.34,305.39 503.94,303.59 504.53,302.02 505.13,300.54 505.72,299.07 506.31,297.45 506.91,295.94 507.50,294.44 508.09,293.01 508.69,291.51 509.28,290.12 509.88,288.84 510.47,287.51 511.06,286.49 511.66,285.26 512.25,284.19 512.84,283.23 513.44,282.25 514.03,281.20 514.62,280.28 515.22,279.42 515.81,278.57 516.41,277.67 517.00,276.81 517.59,275.83 518.19,274.68 518.78,273.39 519.38,272.24 519.97,271.33 520.56,270.37 521.16,269.29 521.75,268.39 522.34,267.38 522.94,266.55 523.53,265.77 524.12,265.12 524.72,264.46 525.31,263.76 525.91,263.02 526.50,262.14 527.09,261.48 527.69,260.93 528.28,260.35 528.88,259.84 529.47,259.25 530.06,258.89 530.66,258.63 531.25,258.28 531.84,258.08 532.44,257.77 533.03,257.45 533.62,257.33 534.22,257.08 534.81,256.74 535.41,256.45 536.00,256.25 536.59,256.00 537.19,255.77 537.78,255.49 538.38,255.38 538.97,255.35 539.56,255.16 540.16,255.18 540.75,255.15 541.34,255.17 541.94,255.15 542.53,255.17 543.12,255.21 543.72,255.24 544.31,255.27 544.91,255.26 545.50,255.31 546.09,255.36 546.69,255.34 547.28,255.30 547.88,255.28 548.47,255.20 549.06,255.26 549.66,255.16 550.25,255.08 550.84,254.97 551.44,254.65 552.03,254.35 552.62,254.21 553.22,254.09 553.81,254.06 554.41,253.83 555.00,253.69" fill="none" stroke="#2563eb" stroke-width="4" stroke-linecap="round" stroke-linejoin="round" opacity="1.0"/>
<polyline points="80.00,188.65 80.59,188.55 81.19,188.56 81.78,188.65 82.38,188.60 82.97,188.57 83.56,188.59 84.16,188.65 84.75,188.65 85.34,188.71 85.94,188.68 86.53,188.68 87.12,188.61 87.72,188.53 88.31,188.43 88.91,188.36 89.50,188.41 90.09,188.47 90.69,188.50 91.28,188.51 91.88,188.49 92.47,188.53 93.06,188.49 93.66,188.62 94.25,188.66 94.84,188.62 95.44,188.70 96.03,188.91 96.62,189.07 97.22,189.25 97.81,189.42 98.41,189.66 99.00,189.80 99.59,189.99 100.19,190.27 100.78,190.62 101.38,191.14 101.97,191.63 102.56,192.12 103.16,192.63 103.75,193.10 104.34,193.76 104.94,194.36 105.53,195.04 106.12,195.86 106.72,196.58 107.31,197.26 107.91,197.95 108.50,198.73 109.09,199.56 109.69,200.43 110.28,201.36 110.88,202.28 111.47,203.26 112.06,204.25 112.66,205.27 113.25,206.30 113.84,207.41 114.44,208.55 115.03,209.74 115.62,210.99 116.22,212.42 116.81,213.76 117.41,215.19 118.00,216.52 118.59,217.86 119.19,219.09 119.78,220.37 120.38,221.87 120.97,223.40 121.56,224.90 122.16,226.42 122.75,228.10 123.34,229.76 123.94,231.36 124.53,232.90 125.12,234.56 125.72,236.23 126.31,237.97 126.91,239.69 127.50,241.49 128.09,243.45 128.69,245.38 129.28,247.26 129.88,249.24 130.47,251.11 131.06,253.02 131.66,254.93 132.25,256.90 132.84,259.00 133.44,261.14 134.03,263.46 134.62,265.67 135.22,267.91 135.81,270.15 136.41,272.39 137.00,274.71 137.59,277.03 138.19,279.30 138.78,281.63 139.38,284.12 139.97,286.58 140.56,289.10 141.16,291.70 141.75,294.22 142.34,296.87 142.94,299.43 143.53,302.18 144.12,304.92 144.72,307.64 145.31,310.39 145.91,313.15 146.50,315.88 147.09,318.54 147.69,321.28 148.28,323.95 148.88,326.80 149.47,329.56 150.06,332.42 150.66,335.38 151.25,338.35 151.84,341.34 152.44,344.37 153.03,347.30 153.62,350.21 154.22,353.22 154.81,356.06 155.41,358.94 156.00,361.95 156.59,365.09 157.19,368.03 157.78,370.80 158.38,373.51 158.97,376.20 159.56,378.98 160.16,381.61 160.75,384.32 161.34,387.03 161.94,389.76 162.53,392.50 163.12,395.18 163.72,397.84 164.31,400.53 164.91,403.21 165.50,405.86 166.09,408.51 166.69,410.97 167.28,413.52 167.88,416.04 168.47,418.58 169.06,421.08 169.66,423.49 170.25,425.89 170.84,428.31 171.44,430.78 172.03,433.16 172.62,435.40 173.22,437.60 173.81,439.74 174.41,441.96 175.00,444.16 175.59,446.33 176.19,448.50 176.78,450.59 177.38,452.65 177.97,454.73 178.56,456.77 179.16,458.71 179.75,460.45 180.34,462.19 180.94,463.90 181.53,465.66 182.12,467.47 182.72,469.20 183.31,470.75 183.91,472.34 184.50,473.92 185.09,475.45 185.69,476.99 186.28,478.40 186.88,479.81 187.47,481.20 188.06,482.57 188.66,484.01 189.25,485.39 189.84,486.70 190.44,487.91 191.03,489.06 191.62,490.38 192.22,491.58 192.81,492.62 193.41,493.65 194.00,494.78 194.59,495.90 195.19,497.00 195.78,498.03 196.38,499.03 196.97,500.06 197.56,501.10 198.16,502.10 198.75,503.04 199.34,503.92 199.94,504.73 200.53,505.55 201.12,506.30 201.72,507.12 202.31,507.97 202.91,508.79 203.50,509.64 204.09,510.38 204.69,511.05 205.28,511.80 205.88,512.54 206.47,513.26 207.06,513.99 207.66,514.67 208.25,515.39 208.84,516.14 209.44,516.83 210.03,517.43 210.62,518.00 211.22,518.62 211.81,519.28 212.41,519.84 213.00,520.40 213.59,520.95 214.19,521.51 214.78,522.04 215.38,522.59 215.97,523.10 216.56,523.52 217.16,523.93 217.75,524.45 218.34,524.94 218.94,525.36 219.53,525.79 220.13,526.22 220.72,526.67 221.31,527.04 221.91,527.43 222.50,527.84 223.09,528.22 223.69,528.58 224.28,528.95 224.88,529.37 225.47,529.78 226.06,530.20 226.66,530.60 227.25,531.03 227.84,531.46 228.44,531.87 229.03,532.22 229.63,532.62 230.22,532.92 230.81,533.22 231.41,533.64 232.00,534.09 232.59,534.49 233.19,534.94 233.78,535.31 234.38,535.62 234.97,535.88 235.56,536.13 236.16,536.38 236.75,536.63 237.34,536.89 237.94,537.20 238.53,537.50 239.12,537.77 239.72,538.04 240.31,538.33 240.91,538.73 241.50,539.05 242.09,539.45 242.69,539.81 243.28,540.12 243.88,540.43 244.47,540.73 245.06,541.00 245.66,541.27 246.25,541.60 246.84,541.91 247.44,542.18 248.03,542.41 248.63,542.60 249.22,542.78 249.81,543.02 250.41,543.21 251.00,543.39 251.59,543.58 252.19,543.79 252.78,544.07 253.38,544.36 253.97,544.62 254.56,544.85 255.16,545.06 255.75,545.28 256.34,545.49 256.94,545.68 257.53,545.88 258.12,546.06 258.72,546.27 259.31,546.45 259.91,546.64 260.50,546.86 261.09,547.08 261.69,547.32 262.28,547.56 262.88,547.82 263.47,548.06 264.06,548.25 264.66,548.42 265.25,548.59 265.84,548.76 266.44,548.94 267.03,549.14 267.62,549.32 268.22,549.52 268.81,549.73 269.41,549.99 270.00,550.24 270.59,550.51 271.19,550.74 271.78,550.97 272.38,551.17 272.97,551.36 273.56,551.56 274.16,551.80 274.75,552.03 275.34,552.23 275.94,552.48 276.53,552.66 277.12,552.84 277.72,553.01 278.31,553.16 278.91,553.30 279.50,553.46 280.09,553.61 280.69,553.76 281.28,553.94 281.88,554.06 282.47,554.22 283.06,554.35 283.66,554.48 284.25,554.69 284.84,554.82 285.44,554.98 286.03,555.13 286.62,555.25 287.22,555.39 287.81,555.56 288.41,555.69 289.00,555.82 289.59,555.96 290.19,556.11 290.78,556.23 291.38,556.35 291.97,556.53 292.56,556.67 293.16,556.80 293.75,556.92 294.34,557.04 294.94,557.16 295.53,557.28 296.12,557.39 296.72,557.50 297.31,557.63 297.91,557.76 298.50,557.87 299.09,557.98 299.69,558.09 300.28,558.18 300.88,558.29 301.47,558.40 302.06,558.48 302.66,558.59 303.25,558.70 303.84,558.81 304.44,558.91 305.03,559.01 305.62,559.13 306.22,559.29 306.81,559.43 307.41,559.59 308.00,559.71 308.59,559.82 309.19,559.91 309.78,560.00 310.38,560.09 310.97,560.22 311.56,560.41 312.16,560.58 312.75,560.66 313.34,560.74 313.94,560.82 314.53,560.95 315.12,561.02 315.72,561.08 316.31,561.14 316.91,561.22 317.50,561.34 318.09,561.45 318.69,561.54 319.28,561.65 319.88,561.75 320.47,561.91 321.06,562.02 321.66,562.09 322.25,562.14 322.84,562.18 323.44,562.20 324.03,562.24 324.62,562.28 325.22,562.33 325.81,562.37 326.41,562.41 327.00,562.44 327.59,562.48 328.19,562.53 328.78,562.58 329.38,562.61 329.97,562.64 330.56,562.69 331.16,562.73 331.75,562.77 332.34,562.83 332.94,562.89 333.53,562.95 334.12,563.01 334.72,563.08 335.31,563.12 335.91,563.15 336.50,563.26 337.09,563.32 337.69,563.36 338.28,563.41 338.88,563.47 339.47,563.49 340.06,563.51 340.66,563.51 341.25,563.49 341.84,563.44 342.44,563.44 343.03,563.46 343.62,563.48 344.22,563.52 344.81,563.55 345.41,563.56 346.00,563.56 346.59,563.54 347.19,563.54 347.78,563.55 348.38,563.56 348.97,563.54 349.56,563.52 350.16,563.51 350.75,563.51 351.34,563.50 351.94,563.50 352.53,563.50 353.12,563.44 353.72,563.44 354.31,563.43 354.91,563.42 355.50,563.42 356.09,563.42 356.69,563.43 357.28,563.43 357.88,563.43 358.47,563.42 359.06,563.39 359.66,563.33 360.25,563.27 360.84,563.19 361.44,563.15 362.03,563.11 362.62,563.16 363.22,563.13 363.81,563.09 364.41,563.03 365.00,562.98 365.59,562.94 366.19,562.90 366.78,562.87 367.38,562.88 367.97,562.83 368.56,562.77 369.16,562.72 369.75,562.67 370.34,562.58 370.94,562.49 371.53,562.35 372.12,562.29 372.72,562.22 373.31,562.15 373.91,562.00 374.50,561.93 375.09,561.87 375.69,561.81 376.28,561.70 376.88,561.62 377.47,561.56 378.06,561.50 378.66,561.40 379.25,561.30 379.84,561.23 380.44,561.19 381.03,561.15 381.62,561.12 382.22,561.06 382.81,561.01 383.41,560.95 384.00,560.88 384.59,560.86 385.19,560.74 385.78,560.61 386.38,560.51 386.97,560.43 387.56,560.32 388.16,560.23 388.75,560.14 389.34,560.04 389.94,559.83 390.53,559.70 391.12,559.56 391.72,559.43 392.31,559.31 392.91,559.18 393.50,558.99 394.09,558.82 394.69,558.65 395.28,558.49 395.88,558.36 396.47,558.19 397.06,557.98 397.66,557.79 398.25,557.61 398.84,557.50 399.44,557.33 400.03,557.16 400.62,556.95 401.22,556.77 401.81,556.51 402.41,556.31 403.00,556.13 403.59,555.92 404.19,555.69 404.78,555.39 405.38,555.04 405.97,554.77 406.56,554.50 407.16,554.18 407.75,553.85 408.34,553.53 408.94,553.18 409.53,552.80 410.13,552.45 410.72,552.13 411.31,551.79 411.91,551.45 412.50,551.03 413.09,550.66 413.69,550.30 414.28,549.93 414.88,549.55 415.47,549.09 416.06,548.67 416.66,548.25 417.25,547.76 417.84,547.29 418.44,546.76 419.03,546.30 419.63,545.80 420.22,545.29 420.81,544.80 421.41,544.34 422.00,543.87 422.59,543.32 423.19,542.82 423.78,542.27 424.38,541.77 424.97,541.18 425.56,540.62 426.16,540.05 426.75,539.36 427.34,538.69 427.94,537.92 428.53,537.16 429.13,536.50 429.72,535.71 430.31,534.93 430.91,534.17 431.50,533.29 432.09,532.54 432.69,531.74 433.28,530.96 433.88,530.21 434.47,529.33 435.06,528.47 435.66,527.40 436.25,526.35 436.84,525.34 437.44,524.32 438.03,523.28 438.63,522.21 439.22,521.14 439.81,520.02 440.41,518.88 441.00,517.66 441.59,516.44 442.19,515.23 442.78,513.94 443.38,512.64 443.97,511.38 444.56,510.09 445.16,508.77 445.75,507.33 446.34,505.85 446.94,504.47 447.53,503.01 448.12,501.50 448.72,499.88 449.31,498.31 449.91,496.61 450.50,494.97 451.09,493.29 451.69,491.59 452.28,489.70 452.88,487.80 453.47,485.87 454.06,483.92 454.66,481.92 455.25,480.06 455.84,478.17 456.44,476.14 457.03,474.15 457.62,472.08 458.22,469.98 458.81,467.69 459.41,465.65 460.00,463.55 460.59,461.42 461.19,459.21 461.78,456.90 462.38,454.52 462.97,452.23 463.56,449.87 464.16,447.45 464.75,445.10 465.34,442.64 465.94,440.17 466.53,437.72 467.12,435.11 467.72,432.54 468.31,429.96 468.91,427.42 469.50,424.90 470.09,422.10 470.69,419.39 471.28,416.56 471.88,413.84 472.47,411.23 473.06,408.73 473.66,406.34 474.25,403.92 474.84,401.62 475.44,399.25 476.03,396.77 476.62,394.24 477.22,391.76 477.81,389.35 478.41,386.98 479.00,384.60 479.59,382.24 480.19,379.82 480.78,377.35 481.38,374.85 481.97,372.28 482.56,369.77 483.16,367.35 483.75,364.93 484.34,362.46 484.94,359.96 485.53,357.46 486.13,355.01 486.72,352.65 487.31,350.20 487.91,347.72 488.50,345.24 489.09,342.66 489.69,340.34 490.28,338.10 490.88,335.85 491.47,333.54 492.06,331.25 492.66,328.96 493.25,326.75 493.84,324.59 494.44,322.40 495.03,320.16 495.62,317.95 496.22,315.67 496.81,313.42 497.41,311.29 498.00,309.21 498.59,307.07 499.19,305.02 499.78,302.92 500.38,300.98 500.97,299.18 501.56,297.44 502.16,295.55 502.75,293.71 503.34,291.88 503.94,290.02 504.53,288.34 505.13,286.82 505.72,285.18 506.31,283.54 506.91,282.01 507.50,280.57 508.09,279.17 508.69,277.68 509.28,276.13 509.88,274.60 510.47,273.19 511.06,271.81 511.66,270.26 512.25,268.91 512.84,267.57 513.44,266.34 514.03,265.13 514.62,263.87 515.22,262.78 515.81,261.62 516.41,260.43 517.00,259.20 517.59,257.90 518.19,256.63 518.78,255.47 519.38,254.37 519.97,253.28 520.56,252.22 521.16,251.17 521.75,250.08 522.34,248.80 522.94,247.81 523.53,246.78 524.12,245.93 524.72,245.08 525.31,244.31 525.91,243.50 526.50,242.70 527.09,241.95 527.69,241.22 528.28,240.48 528.88,239.86 529.47,239.12 530.06,238.41 530.66,237.95 531.25,237.48 531.84,237.11 532.44,236.63 533.03,236.18 533.62,235.84 534.22,235.39 534.81,234.96 535.41,234.46 536.00,234.01 536.59,233.46 537.19,233.00 537.78,232.61 538.38,232.29 538.97,232.02 539.56,231.64 540.16,231.43 540.75,231.23 541.34,231.11 541.94,230.91 542.53,230.65 543.12,230.52 543.72,230.40 544.31,230.22 544.91,229.96 545.50,229.78 546.09,229.60 546.69,229.58 547.28,229.47 547.88,229.41 548.47,229.37 549.06,229.42 549.66,229.44 550.25,229.48 550.84,229.49 551.44,229.50 552.03,229.57 552.62,229.62 553.22,229.85 553.81,230.02 554.41,230.17 555.00,230.34" fill="none" stroke="#c026d3" stroke-width="4" stroke-linecap="round" stroke-linejoin="round" opacity="1.0" stroke-dasharray="9 6"/>
<text x="305" y="190" font-size="16" fill="#5e6a7d">RMSE: FP 0.028; RP 0.019</text>
<line x1="705" y1="570.00" x2="1175" y2="570.00" stroke="#d9dee8"/>
<text x="692" y="576.00" text-anchor="end" class="tick">7</text>
<line x1="705" y1="472.38" x2="1175" y2="472.38" stroke="#d9dee8"/>
<text x="692" y="478.38" text-anchor="end" class="tick">8</text>
<line x1="705" y1="374.76" x2="1175" y2="374.76" stroke="#d9dee8"/>
<text x="692" y="380.76" text-anchor="end" class="tick">9</text>
<line x1="705" y1="277.14" x2="1175" y2="277.14" stroke="#d9dee8"/>
<text x="692" y="283.14" text-anchor="end" class="tick">10</text>
<line x1="705" y1="179.52" x2="1175" y2="179.52" stroke="#d9dee8"/>
<text x="692" y="185.52" text-anchor="end" class="tick">11</text>
<line x1="705.00" y1="160" x2="705.00" y2="570" stroke="#d9dee8"/>
<text x="705.00" y="599" text-anchor="middle" class="tick">0</text>
<line x1="822.50" y1="160" x2="822.50" y2="570" stroke="#d9dee8"/>
<text x="822.50" y="599" text-anchor="middle" class="tick">5</text>
<line x1="940.00" y1="160" x2="940.00" y2="570" stroke="#d9dee8"/>
<text x="940.00" y="599" text-anchor="middle" class="tick">10</text>
<line x1="1057.50" y1="160" x2="1057.50" y2="570" stroke="#d9dee8"/>
<text x="1057.50" y="599" text-anchor="middle" class="tick">15</text>
<line x1="1175.00" y1="160" x2="1175.00" y2="570" stroke="#d9dee8"/>
<text x="1175.00" y="599" text-anchor="middle" class="tick">20</text>
<line x1="705" y1="570" x2="1175" y2="570" stroke="#172033" stroke-width="2"/>
<line x1="705" y1="160" x2="705" y2="570" stroke="#172033" stroke-width="2"/>
<text x="705" y="142" font-size="22" font-weight="700">B  Nuclear centroid</text>
<text x="940.00" y="633" text-anchor="middle" class="axis-label">time (fs)</text>
<text x="640" y="365.00" text-anchor="middle" class="axis-label" transform="rotate(-90 640 365.00)">qx (mass-weighted a.u.)</text>
<polyline points="705.00,495.57 705.59,495.56 706.17,495.55 706.76,495.52 707.35,495.49 707.94,495.44 708.52,495.39 709.11,495.33 709.70,495.26 710.29,495.17 710.88,495.08 711.46,494.98 712.05,494.87 712.64,494.75 713.23,494.62 713.81,494.48 714.40,494.33 714.99,494.17 715.58,494.00 716.16,493.82 716.75,493.63 717.34,493.43 717.92,493.22 718.51,493.01 719.10,492.78 719.69,492.54 720.27,492.30 720.86,492.04 721.45,491.78 722.04,491.51 722.62,491.22 723.21,490.93 723.80,490.63 724.39,490.32 724.98,490.00 725.56,489.67 726.15,489.33 726.74,488.98 727.33,488.62 727.91,488.26 728.50,487.88 729.09,487.49 729.67,487.10 730.26,486.70 730.85,486.28 731.44,485.86 732.02,485.43 732.61,484.99 733.20,484.55 733.79,484.09 734.38,483.62 734.96,483.15 735.55,482.67 736.14,482.17 736.73,481.67 737.31,481.16 737.90,480.65 738.49,480.12 739.08,479.58 739.66,479.04 740.25,478.49 740.84,477.93 741.42,477.36 742.01,476.78 742.60,476.19 743.19,475.60 743.77,475.00 744.36,474.39 744.95,473.77 745.54,473.14 746.12,472.51 746.71,471.86 747.30,471.21 747.89,470.55 748.48,469.89 749.06,469.21 749.65,468.53 750.24,467.84 750.83,467.14 751.41,466.44 752.00,465.73 752.59,465.01 753.17,464.28 753.76,463.54 754.35,462.80 754.94,462.05 755.52,461.29 756.11,460.53 756.70,459.76 757.29,458.98 757.88,458.19 758.46,457.40 759.05,456.60 759.64,455.79 760.23,454.98 760.81,454.16 761.40,453.33 761.99,452.50 762.58,451.66 763.16,450.81 763.75,449.96 764.34,449.10 764.92,448.23 765.51,447.36 766.10,446.48 766.69,445.59 767.27,444.70 767.86,443.80 768.45,442.90 769.04,441.99 769.62,441.07 770.21,440.15 770.80,439.22 771.39,438.29 771.98,437.35 772.56,436.41 773.15,435.46 773.74,434.50 774.33,433.54 774.91,432.58 775.50,431.60 776.09,430.63 776.67,429.65 777.26,428.66 777.85,427.67 778.44,426.67 779.02,425.67 779.61,424.66 780.20,423.65 780.79,422.63 781.38,421.61 781.96,420.59 782.55,419.56 783.14,418.52 783.73,417.48 784.31,416.44 784.90,415.39 785.49,414.34 786.08,413.29 786.66,412.23 787.25,411.16 787.84,410.09 788.42,409.02 789.01,407.95 789.60,406.87 790.19,405.78 790.77,404.70 791.36,403.61 791.95,402.52 792.54,401.42 793.12,400.32 793.71,399.22 794.30,398.11 794.89,397.00 795.48,395.89 796.06,394.77 796.65,393.65 797.24,392.53 797.83,391.41 798.41,390.28 799.00,389.15 799.59,388.02 800.17,386.89 800.76,385.75 801.35,384.61 801.94,383.47 802.52,382.33 803.11,381.19 803.70,380.04 804.29,378.89 804.88,377.74 805.46,376.59 806.05,375.43 806.64,374.28 807.23,373.12 807.81,371.96 808.40,370.80 808.99,369.64 809.58,368.47 810.16,367.31 810.75,366.14 811.34,364.98 811.92,363.81 812.51,362.64 813.10,361.47 813.69,360.30 814.27,359.13 814.86,357.96 815.45,356.79 816.04,355.62 816.62,354.44 817.21,353.27 817.80,352.10 818.39,350.93 818.98,349.75 819.56,348.58 820.15,347.40 820.74,346.23 821.33,345.06 821.91,343.89 822.50,342.71 823.09,341.54 823.68,340.37 824.26,339.20 824.85,338.03 825.44,336.86 826.02,335.69 826.61,334.52 827.20,333.35 827.79,332.19 828.38,331.02 828.96,329.86 829.55,328.70 830.14,327.54 830.73,326.38 831.31,325.22 831.90,324.06 832.49,322.91 833.08,321.75 833.66,320.60 834.25,319.45 834.84,318.30 835.42,317.16 836.01,316.01 836.60,314.87 837.19,313.73 837.77,312.59 838.36,311.46 838.95,310.32 839.54,309.19 840.12,308.07 840.71,306.94 841.30,305.82 841.89,304.70 842.48,303.58 843.06,302.47 843.65,301.36 844.24,300.25 844.83,299.14 845.41,298.04 846.00,296.94 846.59,295.85 847.17,294.75 847.76,293.67 848.35,292.58 848.94,291.50 849.52,290.42 850.11,289.35 850.70,288.28 851.29,287.21 851.88,286.15 852.46,285.09 853.05,284.04 853.64,282.99 854.23,281.94 854.81,280.90 855.40,279.86 855.99,278.83 856.58,277.80 857.16,276.78 857.75,275.76 858.34,274.74 858.92,273.73 859.51,272.73 860.10,271.73 860.69,270.73 861.27,269.74 861.86,268.76 862.45,267.78 863.04,266.80 863.62,265.83 864.21,264.87 864.80,263.91 865.39,262.96 865.98,262.01 866.56,261.07 867.15,260.13 867.74,259.20 868.33,258.27 868.91,257.35 869.50,256.44 870.09,255.53 870.67,254.63 871.26,253.73 871.85,252.84 872.44,251.96 873.02,251.08 873.61,250.21 874.20,249.34 874.79,248.48 875.38,247.63 875.96,246.79 876.55,245.95 877.14,245.11 877.73,244.29 878.31,243.47 878.90,242.65 879.49,241.85 880.08,241.05 880.66,240.26 881.25,239.47 881.84,238.69 882.43,237.92 883.01,237.16 883.60,236.40 884.19,235.65 884.77,234.90 885.36,234.17 885.95,233.44 886.54,232.72 887.12,232.00 887.71,231.30 888.30,230.60 888.89,229.91 889.48,229.22 890.06,228.55 890.65,227.88 891.24,227.22 891.83,226.56 892.41,225.92 893.00,225.28 893.59,224.65 894.17,224.03 894.76,223.42 895.35,222.81 895.94,222.21 896.52,221.62 897.11,221.04 897.70,220.47 898.29,219.90 898.88,219.34 899.46,218.79 900.05,218.25 900.64,217.72 901.23,217.20 901.81,216.68 902.40,216.17 902.99,215.67 903.58,215.18 904.16,214.70 904.75,214.23 905.34,213.76 905.92,213.30 906.51,212.86 907.10,212.42 907.69,211.99 908.27,211.56 908.86,211.15 909.45,210.75 910.04,210.35 910.62,209.96 911.21,209.58 911.80,209.22 912.39,208.85 912.98,208.50 913.56,208.16 914.15,207.83 914.74,207.50 915.33,207.19 915.91,206.88 916.50,206.58 917.09,206.29 917.67,206.01 918.26,205.74 918.85,205.48 919.44,205.23 920.02,204.98 920.61,204.75 921.20,204.52 921.79,204.31 922.38,204.10 922.96,203.90 923.55,203.71 924.14,203.53 924.73,203.36 925.31,203.20 925.90,203.05 926.49,202.91 927.08,202.77 927.66,202.65 928.25,202.53 928.84,202.43 929.42,202.33 930.01,202.25 930.60,202.17 931.19,202.10 931.77,202.04 932.36,201.99 932.95,201.95 933.54,201.92 934.12,201.90 934.71,201.89 935.30,201.88 935.89,201.89 936.48,201.90 937.06,201.93 937.65,201.96 938.24,202.01 938.83,202.06 939.41,202.12 940.00,202.19 940.59,202.27 941.18,202.36 941.76,202.46 942.35,202.57 942.94,202.69 943.53,202.82 944.11,202.95 944.70,203.10 945.29,203.25 945.88,203.42 946.46,203.59 947.05,203.77 947.64,203.96 948.23,204.17 948.81,204.38 949.40,204.60 949.99,204.82 950.58,205.06 951.16,205.31 951.75,205.56 952.34,205.83 952.93,206.10 953.51,206.39 954.10,206.68 954.69,206.98 955.27,207.29 955.86,207.61 956.45,207.94 957.04,208.27 957.62,208.62 958.21,208.97 958.80,209.34 959.39,209.71 959.98,210.09 960.56,210.48 961.15,210.88 961.74,211.29 962.33,211.70 962.91,212.13 963.50,212.56 964.09,213.00 964.67,213.45 965.26,213.91 965.85,214.38 966.44,214.86 967.02,215.34 967.61,215.84 968.20,216.34 968.79,216.85 969.38,217.37 969.96,217.90 970.55,218.43 971.14,218.97 971.73,219.53 972.31,220.09 972.90,220.65 973.49,221.23 974.08,221.81 974.66,222.41 975.25,223.01 975.84,223.62 976.42,224.23 977.01,224.86 977.60,225.49 978.19,226.13 978.78,226.78 979.36,227.43 979.95,228.10 980.54,228.77 981.12,229.44 981.71,230.13 982.30,230.82 982.89,231.53 983.48,232.23 984.06,232.95 984.65,233.67 985.24,234.40 985.83,235.14 986.41,235.89 987.00,236.64 987.59,237.40 988.17,238.16 988.76,238.94 989.35,239.72 989.94,240.50 990.53,241.30 991.11,242.10 991.70,242.91 992.29,243.72 992.88,244.54 993.46,245.37 994.05,246.20 994.64,247.04 995.23,247.89 995.81,248.74 996.40,249.60 996.99,250.47 997.58,251.34 998.16,252.22 998.75,253.10 999.34,253.99 999.92,254.89 1000.51,255.79 1001.10,256.70 1001.69,257.62 1002.28,258.54 1002.86,259.46 1003.45,260.39 1004.04,261.33 1004.62,262.27 1005.21,263.22 1005.80,264.17 1006.39,265.13 1006.98,266.10 1007.56,267.07 1008.15,268.04 1008.74,269.02 1009.33,270.00 1009.91,270.99 1010.50,271.99 1011.09,272.99 1011.67,273.99 1012.26,275.00 1012.85,276.01 1013.44,277.03 1014.02,278.05 1014.61,279.08 1015.20,280.11 1015.79,281.15 1016.38,282.19 1016.96,283.23 1017.55,284.28 1018.14,285.33 1018.73,286.39 1019.31,287.45 1019.90,288.51 1020.49,289.58 1021.08,290.65 1021.66,291.73 1022.25,292.81 1022.84,293.89 1023.42,294.98 1024.01,296.07 1024.60,297.16 1025.19,298.25 1025.78,299.35 1026.36,300.45 1026.95,301.56 1027.54,302.67 1028.12,303.78 1028.71,304.89 1029.30,306.01 1029.89,307.13 1030.48,308.25 1031.06,309.38 1031.65,310.50 1032.24,311.63 1032.83,312.76 1033.41,313.90 1034.00,315.03 1034.59,316.17 1035.17,317.31 1035.76,318.45 1036.35,319.60 1036.94,320.74 1037.53,321.89 1038.11,323.04 1038.70,324.19 1039.29,325.35 1039.88,326.50 1040.46,327.65 1041.05,328.81 1041.64,329.97 1042.22,331.13 1042.81,332.29 1043.40,333.45 1043.99,334.61 1044.58,335.77 1045.16,336.94 1045.75,338.10 1046.34,339.27 1046.92,340.43 1047.51,341.60 1048.10,342.77 1048.69,343.93 1049.28,345.10 1049.86,346.27 1050.45,347.43 1051.04,348.60 1051.62,349.77 1052.21,350.94 1052.80,352.10 1053.39,353.27 1053.97,354.44 1054.56,355.60 1055.15,356.77 1055.74,357.94 1056.33,359.10 1056.91,360.26 1057.50,361.43 1058.09,362.59 1058.67,363.75 1059.26,364.91 1059.85,366.07 1060.44,367.23 1061.03,368.38 1061.61,369.54 1062.20,370.69 1062.79,371.85 1063.38,373.00 1063.96,374.15 1064.55,375.30 1065.14,376.44 1065.72,377.59 1066.31,378.73 1066.90,379.87 1067.49,381.01 1068.08,382.15 1068.66,383.28 1069.25,384.41 1069.84,385.54 1070.42,386.67 1071.01,387.80 1071.60,388.92 1072.19,390.04 1072.78,391.16 1073.36,392.27 1073.95,393.38 1074.54,394.49 1075.12,395.60 1075.71,396.70 1076.30,397.80 1076.89,398.90 1077.47,399.99 1078.06,401.08 1078.65,402.17 1079.24,403.25 1079.83,404.33 1080.41,405.41 1081.00,406.48 1081.59,407.55 1082.17,408.61 1082.76,409.67 1083.35,410.73 1083.94,411.78 1084.53,412.83 1085.11,413.88 1085.70,414.92 1086.29,415.96 1086.88,416.99 1087.46,418.02 1088.05,419.04 1088.64,420.06 1089.23,421.07 1089.81,422.08 1090.40,423.09 1090.99,424.09 1091.58,425.08 1092.16,426.07 1092.75,427.06 1093.34,428.04 1093.92,429.02 1094.51,429.99 1095.10,430.95 1095.69,431.91 1096.28,432.86 1096.86,433.81 1097.45,434.76 1098.04,435.69 1098.62,436.63 1099.21,437.55 1099.80,438.47 1100.39,439.39 1100.97,440.30 1101.56,441.20 1102.15,442.10 1102.74,442.99 1103.33,443.88 1103.91,444.75 1104.50,445.63 1105.09,446.49 1105.67,447.35 1106.26,448.21 1106.85,449.06 1107.44,449.90 1108.03,450.73 1108.61,451.56 1109.20,452.38 1109.79,453.20 1110.38,454.00 1110.96,454.80 1111.55,455.60 1112.14,456.39 1112.72,457.17 1113.31,457.94 1113.90,458.71 1114.49,459.47 1115.08,460.22 1115.66,460.96 1116.25,461.70 1116.84,462.43 1117.42,463.15 1118.01,463.87 1118.60,464.58 1119.19,465.28 1119.78,465.97 1120.36,466.65 1120.95,467.33 1121.54,468.00 1122.12,468.66 1122.71,469.32 1123.30,469.96 1123.89,470.60 1124.47,471.23 1125.06,471.86 1125.65,472.47 1126.24,473.08 1126.83,473.67 1127.41,474.26 1128.00,474.85 1128.59,475.42 1129.17,475.99 1129.76,476.54 1130.35,477.09 1130.94,477.63 1131.53,478.16 1132.11,478.69 1132.70,479.20 1133.29,479.71 1133.88,480.21 1134.46,480.69 1135.05,481.17 1135.64,481.65 1136.22,482.11 1136.81,482.56 1137.40,483.01 1137.99,483.45 1138.58,483.87 1139.16,484.29 1139.75,484.70 1140.34,485.10 1140.92,485.49 1141.51,485.88 1142.10,486.25 1142.69,486.61 1143.28,486.97 1143.86,487.32 1144.45,487.65 1145.04,487.98 1145.62,488.30 1146.21,488.61 1146.80,488.91 1147.39,489.20 1147.98,489.48 1148.56,489.75 1149.15,490.01 1149.74,490.27 1150.33,490.51 1150.91,490.74 1151.50,490.97 1152.09,491.18 1152.67,491.39 1153.26,491.59 1153.85,491.77 1154.44,491.95 1155.03,492.12 1155.61,492.27 1156.20,492.42 1156.79,492.56 1157.38,492.69 1157.96,492.81 1158.55,492.92 1159.14,493.02 1159.72,493.11 1160.31,493.19 1160.90,493.26 1161.49,493.32 1162.08,493.37 1162.66,493.41 1163.25,493.44 1163.84,493.46 1164.42,493.47 1165.01,493.48 1165.60,493.47 1166.19,493.45 1166.78,493.42 1167.36,493.39 1167.95,493.34 1168.54,493.28 1169.12,493.21 1169.71,493.14 1170.30,493.05 1170.89,492.96 1171.47,492.85 1172.06,492.73 1172.65,492.61 1173.24,492.47 1173.83,492.33 1174.41,492.17 1175.00,492.01" fill="none" stroke="#111827" stroke-width="5" stroke-linecap="round" stroke-linejoin="round" opacity="1.0"/>
<polyline points="705.00,483.92 705.59,483.92 706.17,483.92 706.76,483.91 707.35,483.89 707.94,483.87 708.52,483.84 709.11,483.80 709.70,483.76 710.29,483.71 710.88,483.66 711.46,483.60 712.05,483.53 712.64,483.46 713.23,483.38 713.81,483.29 714.40,483.20 714.99,483.10 715.58,482.99 716.16,482.87 716.75,482.75 717.34,482.63 717.92,482.49 718.51,482.35 719.10,482.20 719.69,482.05 720.27,481.88 720.86,481.71 721.45,481.54 722.04,481.36 722.62,481.17 723.21,480.98 723.80,480.77 724.39,480.57 724.98,480.36 725.56,480.14 726.15,479.92 726.74,479.69 727.33,479.46 727.91,479.22 728.50,478.98 729.09,478.73 729.67,478.47 730.26,478.21 730.85,477.95 731.44,477.67 732.02,477.39 732.61,477.11 733.20,476.81 733.79,476.51 734.38,476.21 734.96,475.90 735.55,475.58 736.14,475.25 736.73,474.92 737.31,474.59 737.90,474.24 738.49,473.89 739.08,473.54 739.66,473.18 740.25,472.81 740.84,472.44 741.42,472.06 742.01,471.68 742.60,471.29 743.19,470.90 743.77,470.50 744.36,470.10 744.95,469.69 745.54,469.28 746.12,468.86 746.71,468.43 747.30,468.00 747.89,467.56 748.48,467.12 749.06,466.67 749.65,466.22 750.24,465.76 750.83,465.30 751.41,464.83 752.00,464.35 752.59,463.87 753.17,463.39 753.76,462.89 754.35,462.40 754.94,461.90 755.52,461.39 756.11,460.88 756.70,460.37 757.29,459.85 757.88,459.32 758.46,458.79 759.05,458.25 759.64,457.71 760.23,457.16 760.81,456.61 761.40,456.05 761.99,455.49 762.58,454.93 763.16,454.36 763.75,453.78 764.34,453.20 764.92,452.61 765.51,452.03 766.10,451.43 766.69,450.83 767.27,450.23 767.86,449.63 768.45,449.02 769.04,448.40 769.62,447.78 770.21,447.16 770.80,446.53 771.39,445.90 771.98,445.27 772.56,444.62 773.15,443.98 773.74,443.33 774.33,442.68 774.91,442.02 775.50,441.36 776.09,440.70 776.67,440.03 777.26,439.36 777.85,438.68 778.44,438.00 779.02,437.32 779.61,436.64 780.20,435.95 780.79,435.25 781.38,434.56 781.96,433.86 782.55,433.15 783.14,432.44 783.73,431.73 784.31,431.02 784.90,430.30 785.49,429.58 786.08,428.86 786.66,428.13 787.25,427.40 787.84,426.67 788.42,425.93 789.01,425.19 789.60,424.45 790.19,423.71 790.77,422.96 791.36,422.21 791.95,421.46 792.54,420.71 793.12,419.95 793.71,419.19 794.30,418.43 794.89,417.66 795.48,416.89 796.06,416.12 796.65,415.35 797.24,414.58 797.83,413.80 798.41,413.02 799.00,412.24 799.59,411.45 800.17,410.67 800.76,409.88 801.35,409.09 801.94,408.30 802.52,407.51 803.11,406.71 803.70,405.91 804.29,405.11 804.88,404.31 805.46,403.51 806.05,402.70 806.64,401.90 807.23,401.09 807.81,400.28 808.40,399.47 808.99,398.66 809.58,397.85 810.16,397.03 810.75,396.22 811.34,395.41 811.92,394.59 812.51,393.77 813.10,392.96 813.69,392.14 814.27,391.32 814.86,390.51 815.45,389.69 816.04,388.87 816.62,388.05 817.21,387.23 817.80,386.41 818.39,385.59 818.98,384.76 819.56,383.94 820.15,383.12 820.74,382.30 821.33,381.48 821.91,380.66 822.50,379.83 823.09,379.01 823.68,378.19 824.26,377.37 824.85,376.55 825.44,375.73 826.02,374.91 826.61,374.09 827.20,373.27 827.79,372.45 828.38,371.63 828.96,370.81 829.55,370.00 830.14,369.18 830.73,368.37 831.31,367.55 831.90,366.74 832.49,365.93 833.08,365.12 833.66,364.31 834.25,363.51 834.84,362.70 835.42,361.90 836.01,361.09 836.60,360.29 837.19,359.49 837.77,358.69 838.36,357.90 838.95,357.10 839.54,356.31 840.12,355.52 840.71,354.73 841.30,353.94 841.89,353.15 842.48,352.37 843.06,351.58 843.65,350.80 844.24,350.03 844.83,349.25 845.41,348.48 846.00,347.71 846.59,346.94 847.17,346.17 847.76,345.41 848.35,344.65 848.94,343.89 849.52,343.13 850.11,342.38 850.70,341.63 851.29,340.88 851.88,340.14 852.46,339.39 853.05,338.65 853.64,337.92 854.23,337.18 854.81,336.45 855.40,335.73 855.99,335.00 856.58,334.28 857.16,333.56 857.75,332.85 858.34,332.14 858.92,331.43 859.51,330.72 860.10,330.02 860.69,329.32 861.27,328.63 861.86,327.94 862.45,327.25 863.04,326.57 863.62,325.89 864.21,325.21 864.80,324.54 865.39,323.87 865.98,323.21 866.56,322.55 867.15,321.89 867.74,321.24 868.33,320.59 868.91,319.95 869.50,319.31 870.09,318.68 870.67,318.05 871.26,317.42 871.85,316.80 872.44,316.18 873.02,315.57 873.61,314.96 874.20,314.36 874.79,313.76 875.38,313.16 875.96,312.57 876.55,311.99 877.14,311.41 877.73,310.83 878.31,310.26 878.90,309.70 879.49,309.14 880.08,308.58 880.66,308.03 881.25,307.49 881.84,306.95 882.43,306.41 883.01,305.88 883.60,305.35 884.19,304.83 884.77,304.32 885.36,303.81 885.95,303.31 886.54,302.81 887.12,302.32 887.71,301.83 888.30,301.35 888.89,300.87 889.48,300.40 890.06,299.94 890.65,299.48 891.24,299.02 891.83,298.57 892.41,298.13 893.00,297.69 893.59,297.26 894.17,296.84 894.76,296.42 895.35,296.00 895.94,295.59 896.52,295.19 897.11,294.79 897.70,294.40 898.29,294.01 898.88,293.63 899.46,293.26 900.05,292.89 900.64,292.53 901.23,292.17 901.81,291.82 902.40,291.48 902.99,291.14 903.58,290.81 904.16,290.49 904.75,290.17 905.34,289.85 905.92,289.55 906.51,289.24 907.10,288.95 907.69,288.66 908.27,288.38 908.86,288.10 909.45,287.83 910.04,287.57 910.62,287.31 911.21,287.06 911.80,286.81 912.39,286.58 912.98,286.34 913.56,286.12 914.15,285.90 914.74,285.69 915.33,285.48 915.91,285.28 916.50,285.08 917.09,284.90 917.67,284.71 918.26,284.54 918.85,284.37 919.44,284.21 920.02,284.05 920.61,283.91 921.20,283.76 921.79,283.63 922.38,283.50 922.96,283.38 923.55,283.26 924.14,283.15 924.73,283.05 925.31,282.95 925.90,282.86 926.49,282.78 927.08,282.70 927.66,282.64 928.25,282.57 928.84,282.52 929.42,282.47 930.01,282.43 930.60,282.39 931.19,282.36 931.77,282.34 932.36,282.32 932.95,282.31 933.54,282.31 934.12,282.31 934.71,282.32 935.30,282.34 935.89,282.37 936.48,282.40 937.06,282.43 937.65,282.48 938.24,282.53 938.83,282.59 939.41,282.65 940.00,282.72 940.59,282.80 941.18,282.88 941.76,282.97 942.35,283.07 942.94,283.18 943.53,283.29 944.11,283.40 944.70,283.53 945.29,283.66 945.88,283.80 946.46,283.94 947.05,284.09 947.64,284.25 948.23,284.41 948.81,284.58 949.40,284.76 949.99,284.94 950.58,285.13 951.16,285.33 951.75,285.53 952.34,285.74 952.93,285.95 953.51,286.18 954.10,286.40 954.69,286.64 955.27,286.88 955.86,287.13 956.45,287.38 957.04,287.64 957.62,287.91 958.21,288.18 958.80,288.46 959.39,288.75 959.98,289.04 960.56,289.34 961.15,289.64 961.74,289.95 962.33,290.27 962.91,290.59 963.50,290.92 964.09,291.26 964.67,291.60 965.26,291.94 965.85,292.30 966.44,292.66 967.02,293.02 967.61,293.40 968.20,293.77 968.79,294.16 969.38,294.55 969.96,294.94 970.55,295.35 971.14,295.75 971.73,296.17 972.31,296.59 972.90,297.01 973.49,297.44 974.08,297.88 974.66,298.32 975.25,298.77 975.84,299.23 976.42,299.69 977.01,300.15 977.60,300.62 978.19,301.10 978.78,301.58 979.36,302.07 979.95,302.57 980.54,303.07 981.12,303.57 981.71,304.08 982.30,304.59 982.89,305.12 983.48,305.64 984.06,306.17 984.65,306.71 985.24,307.25 985.83,307.80 986.41,308.35 987.00,308.91 987.59,309.47 988.17,310.04 988.76,310.61 989.35,311.19 989.94,311.77 990.53,312.36 991.11,312.95 991.70,313.55 992.29,314.15 992.88,314.76 993.46,315.37 994.05,315.99 994.64,316.61 995.23,317.24 995.81,317.87 996.40,318.51 996.99,319.15 997.58,319.79 998.16,320.44 998.75,321.10 999.34,321.76 999.92,322.42 1000.51,323.09 1001.10,323.76 1001.69,324.43 1002.28,325.11 1002.86,325.80 1003.45,326.49 1004.04,327.18 1004.62,327.88 1005.21,328.58 1005.80,329.28 1006.39,329.99 1006.98,330.71 1007.56,331.42 1008.15,332.15 1008.74,332.87 1009.33,333.60 1009.91,334.33 1010.50,335.07 1011.09,335.81 1011.67,336.55 1012.26,337.30 1012.85,338.05 1013.44,338.80 1014.02,339.56 1014.61,340.32 1015.20,341.09 1015.79,341.85 1016.38,342.62 1016.96,343.40 1017.55,344.18 1018.14,344.96 1018.73,345.74 1019.31,346.53 1019.90,347.32 1020.49,348.11 1021.08,348.91 1021.66,349.70 1022.25,350.51 1022.84,351.31 1023.42,352.12 1024.01,352.92 1024.60,353.74 1025.19,354.55 1025.78,355.37 1026.36,356.19 1026.95,357.01 1027.54,357.84 1028.12,358.66 1028.71,359.49 1029.30,360.32 1029.89,361.16 1030.48,361.99 1031.06,362.83 1031.65,363.67 1032.24,364.51 1032.83,365.36 1033.41,366.20 1034.00,367.05 1034.59,367.90 1035.17,368.76 1035.76,369.61 1036.35,370.46 1036.94,371.32 1037.53,372.18 1038.11,373.04 1038.70,373.90 1039.29,374.76 1039.88,375.63 1040.46,376.50 1041.05,377.36 1041.64,378.23 1042.22,379.10 1042.81,379.98 1043.40,380.85 1043.99,381.72 1044.58,382.60 1045.16,383.48 1045.75,384.36 1046.34,385.24 1046.92,386.12 1047.51,387.00 1048.10,387.88 1048.69,388.76 1049.28,389.65 1049.86,390.53 1050.45,391.42 1051.04,392.30 1051.62,393.19 1052.21,394.08 1052.80,394.97 1053.39,395.85 1053.97,396.74 1054.56,397.63 1055.15,398.52 1055.74,399.41 1056.33,400.30 1056.91,401.19 1057.50,402.08 1058.09,402.97 1058.67,403.86 1059.26,404.75 1059.85,405.64 1060.44,406.53 1061.03,407.43 1061.61,408.32 1062.20,409.21 1062.79,410.10 1063.38,410.99 1063.96,411.88 1064.55,412.77 1065.14,413.65 1065.72,414.54 1066.31,415.43 1066.90,416.32 1067.49,417.21 1068.08,418.09 1068.66,418.98 1069.25,419.87 1069.84,420.75 1070.42,421.64 1071.01,422.52 1071.60,423.41 1072.19,424.29 1072.78,425.17 1073.36,426.06 1073.95,426.94 1074.54,427.82 1075.12,428.70 1075.71,429.58 1076.30,430.45 1076.89,431.33 1077.47,432.20 1078.06,433.08 1078.65,433.95 1079.24,434.82 1079.83,435.68 1080.41,436.55 1081.00,437.41 1081.59,438.27 1082.17,439.13 1082.76,439.99 1083.35,440.85 1083.94,441.70 1084.53,442.55 1085.11,443.41 1085.70,444.26 1086.29,445.10 1086.88,445.95 1087.46,446.79 1088.05,447.63 1088.64,448.47 1089.23,449.31 1089.81,450.14 1090.40,450.98 1090.99,451.81 1091.58,452.64 1092.16,453.46 1092.75,454.28 1093.34,455.10 1093.92,455.92 1094.51,456.74 1095.10,457.55 1095.69,458.36 1096.28,459.16 1096.86,459.97 1097.45,460.77 1098.04,461.57 1098.62,462.37 1099.21,463.16 1099.80,463.95 1100.39,464.74 1100.97,465.52 1101.56,466.30 1102.15,467.08 1102.74,467.86 1103.33,468.63 1103.91,469.40 1104.50,470.17 1105.09,470.93 1105.67,471.69 1106.26,472.44 1106.85,473.20 1107.44,473.94 1108.03,474.69 1108.61,475.43 1109.20,476.17 1109.79,476.90 1110.38,477.63 1110.96,478.36 1111.55,479.08 1112.14,479.80 1112.72,480.52 1113.31,481.24 1113.90,481.95 1114.49,482.65 1115.08,483.35 1115.66,484.05 1116.25,484.74 1116.84,485.43 1117.42,486.12 1118.01,486.80 1118.60,487.48 1119.19,488.16 1119.78,488.83 1120.36,489.50 1120.95,490.16 1121.54,490.82 1122.12,491.47 1122.71,492.12 1123.30,492.77 1123.89,493.41 1124.47,494.05 1125.06,494.68 1125.65,495.31 1126.24,495.93 1126.83,496.55 1127.41,497.17 1128.00,497.79 1128.59,498.40 1129.17,499.00 1129.76,499.60 1130.35,500.20 1130.94,500.79 1131.53,501.38 1132.11,501.97 1132.70,502.55 1133.29,503.13 1133.88,503.70 1134.46,504.26 1135.05,504.83 1135.64,505.39 1136.22,505.94 1136.81,506.49 1137.40,507.04 1137.99,507.58 1138.58,508.11 1139.16,508.64 1139.75,509.17 1140.34,509.69 1140.92,510.21 1141.51,510.73 1142.10,511.24 1142.69,511.74 1143.28,512.24 1143.86,512.74 1144.45,513.23 1145.04,513.72 1145.62,514.20 1146.21,514.68 1146.80,515.15 1147.39,515.62 1147.98,516.08 1148.56,516.55 1149.15,517.00 1149.74,517.45 1150.33,517.90 1150.91,518.35 1151.50,518.78 1152.09,519.22 1152.67,519.65 1153.26,520.08 1153.85,520.50 1154.44,520.92 1155.03,521.33 1155.61,521.74 1156.20,522.14 1156.79,522.54 1157.38,522.93 1157.96,523.32 1158.55,523.70 1159.14,524.08 1159.72,524.46 1160.31,524.83 1160.90,525.19 1161.49,525.56 1162.08,525.91 1162.66,526.26 1163.25,526.61 1163.84,526.96 1164.42,527.29 1165.01,527.63 1165.60,527.96 1166.19,528.28 1166.78,528.60 1167.36,528.91 1167.95,529.22 1168.54,529.53 1169.12,529.83 1169.71,530.12 1170.30,530.41 1170.89,530.70 1171.47,530.98 1172.06,531.26 1172.65,531.53 1173.24,531.80 1173.83,532.06 1174.41,532.32 1175.00,532.57" fill="none" stroke="#2563eb" stroke-width="4" stroke-linecap="round" stroke-linejoin="round" opacity="1.0"/>
<polyline points="705.00,483.92 705.59,483.92 706.17,483.92 706.76,483.91 707.35,483.90 707.94,483.88 708.52,483.85 709.11,483.82 709.70,483.78 710.29,483.74 710.88,483.69 711.46,483.64 712.05,483.58 712.64,483.52 713.23,483.45 713.81,483.37 714.40,483.29 714.99,483.20 715.58,483.11 716.16,483.01 716.75,482.91 717.34,482.80 717.92,482.68 718.51,482.56 719.10,482.44 719.69,482.31 720.27,482.17 720.86,482.03 721.45,481.89 722.04,481.73 722.62,481.58 723.21,481.42 723.80,481.25 724.39,481.08 724.98,480.90 725.56,480.72 726.15,480.53 726.74,480.34 727.33,480.15 727.91,479.95 728.50,479.74 729.09,479.53 729.67,479.32 730.26,479.10 730.85,478.87 731.44,478.64 732.02,478.41 732.61,478.17 733.20,477.93 733.79,477.68 734.38,477.43 734.96,477.18 735.55,476.92 736.14,476.65 736.73,476.38 737.31,476.11 737.90,475.83 738.49,475.55 739.08,475.26 739.66,474.97 740.25,474.67 740.84,474.37 741.42,474.07 742.01,473.76 742.60,473.45 743.19,473.14 743.77,472.82 744.36,472.49 744.95,472.17 745.54,471.83 746.12,471.50 746.71,471.16 747.30,470.82 747.89,470.47 748.48,470.12 749.06,469.77 749.65,469.41 750.24,469.06 750.83,468.69 751.41,468.33 752.00,467.96 752.59,467.59 753.17,467.21 753.76,466.83 754.35,466.45 754.94,466.06 755.52,465.67 756.11,465.28 756.70,464.89 757.29,464.49 757.88,464.09 758.46,463.68 759.05,463.28 759.64,462.87 760.23,462.46 760.81,462.05 761.40,461.63 761.99,461.21 762.58,460.79 763.16,460.37 763.75,459.94 764.34,459.51 764.92,459.08 765.51,458.65 766.10,458.21 766.69,457.77 767.27,457.33 767.86,456.89 768.45,456.45 769.04,456.00 769.62,455.55 770.21,455.10 770.80,454.64 771.39,454.19 771.98,453.73 772.56,453.26 773.15,452.80 773.74,452.34 774.33,451.87 774.91,451.40 775.50,450.93 776.09,450.46 776.67,449.98 777.26,449.50 777.85,449.02 778.44,448.54 779.02,448.06 779.61,447.58 780.20,447.09 780.79,446.60 781.38,446.11 781.96,445.62 782.55,445.13 783.14,444.63 783.73,444.14 784.31,443.64 784.90,443.14 785.49,442.64 786.08,442.14 786.66,441.64 787.25,441.13 787.84,440.63 788.42,440.12 789.01,439.61 789.60,439.11 790.19,438.60 790.77,438.09 791.36,437.57 791.95,437.06 792.54,436.55 793.12,436.03 793.71,435.52 794.30,435.00 794.89,434.48 795.48,433.97 796.06,433.45 796.65,432.93 797.24,432.41 797.83,431.89 798.41,431.37 799.00,430.85 799.59,430.32 800.17,429.80 800.76,429.28 801.35,428.75 801.94,428.23 802.52,427.70 803.11,427.18 803.70,426.65 804.29,426.13 804.88,425.60 805.46,425.08 806.05,424.55 806.64,424.03 807.23,423.50 807.81,422.97 808.40,422.45 808.99,421.92 809.58,421.40 810.16,420.87 810.75,420.35 811.34,419.82 811.92,419.30 812.51,418.78 813.10,418.25 813.69,417.73 814.27,417.21 814.86,416.69 815.45,416.17 816.04,415.65 816.62,415.13 817.21,414.61 817.80,414.09 818.39,413.57 818.98,413.06 819.56,412.54 820.15,412.03 820.74,411.51 821.33,411.00 821.91,410.49 822.50,409.98 823.09,409.47 823.68,408.96 824.26,408.45 824.85,407.95 825.44,407.44 826.02,406.93 826.61,406.43 827.20,405.93 827.79,405.43 828.38,404.93 828.96,404.43 829.55,403.93 830.14,403.44 830.73,402.94 831.31,402.45 831.90,401.96 832.49,401.47 833.08,400.98 833.66,400.49 834.25,400.01 834.84,399.52 835.42,399.04 836.01,398.56 836.60,398.08 837.19,397.60 837.77,397.13 838.36,396.65 838.95,396.18 839.54,395.71 840.12,395.24 840.71,394.77 841.30,394.31 841.89,393.85 842.48,393.39 843.06,392.93 843.65,392.47 844.24,392.02 844.83,391.57 845.41,391.12 846.00,390.67 846.59,390.23 847.17,389.78 847.76,389.34 848.35,388.91 848.94,388.47 849.52,388.04 850.11,387.61 850.70,387.18 851.29,386.75 851.88,386.33 852.46,385.91 853.05,385.49 853.64,385.08 854.23,384.66 854.81,384.25 855.40,383.84 855.99,383.44 856.58,383.04 857.16,382.64 857.75,382.24 858.34,381.85 858.92,381.46 859.51,381.07 860.10,380.69 860.69,380.31 861.27,379.93 861.86,379.55 862.45,379.18 863.04,378.81 863.62,378.44 864.21,378.08 864.80,377.72 865.39,377.36 865.98,377.01 866.56,376.66 867.15,376.31 867.74,375.97 868.33,375.63 868.91,375.29 869.50,374.96 870.09,374.63 870.67,374.30 871.26,373.98 871.85,373.66 872.44,373.34 873.02,373.03 873.61,372.72 874.20,372.41 874.79,372.11 875.38,371.81 875.96,371.52 876.55,371.22 877.14,370.94 877.73,370.65 878.31,370.37 878.90,370.09 879.49,369.82 880.08,369.55 880.66,369.28 881.25,369.02 881.84,368.76 882.43,368.50 883.01,368.25 883.60,368.00 884.19,367.75 884.77,367.51 885.36,367.28 885.95,367.04 886.54,366.81 887.12,366.59 887.71,366.37 888.30,366.15 888.89,365.93 889.48,365.72 890.06,365.52 890.65,365.31 891.24,365.12 891.83,364.92 892.41,364.73 893.00,364.54 893.59,364.36 894.17,364.18 894.76,364.01 895.35,363.84 895.94,363.67 896.52,363.51 897.11,363.35 897.70,363.19 898.29,363.04 898.88,362.89 899.46,362.75 900.05,362.61 900.64,362.48 901.23,362.35 901.81,362.22 902.40,362.10 902.99,361.98 903.58,361.87 904.16,361.76 904.75,361.65 905.34,361.55 905.92,361.46 906.51,361.36 907.10,361.27 907.69,361.19 908.27,361.11 908.86,361.03 909.45,360.96 910.04,360.89 910.62,360.83 911.21,360.77 911.80,360.72 912.39,360.66 912.98,360.62 913.56,360.57 914.15,360.54 914.74,360.50 915.33,360.47 915.91,360.44 916.50,360.42 917.09,360.41 917.67,360.39 918.26,360.38 918.85,360.38 919.44,360.38 920.02,360.38 920.61,360.39 921.20,360.40 921.79,360.42 922.38,360.44 922.96,360.47 923.55,360.50 924.14,360.53 924.73,360.57 925.31,360.61 925.90,360.66 926.49,360.71 927.08,360.76 927.66,360.82 928.25,360.89 928.84,360.95 929.42,361.03 930.01,361.10 930.60,361.18 931.19,361.27 931.77,361.36 932.36,361.45 932.95,361.55 933.54,361.65 934.12,361.76 934.71,361.87 935.30,361.98 935.89,362.10 936.48,362.22 937.06,362.35 937.65,362.48 938.24,362.61 938.83,362.75 939.41,362.90 940.00,363.04 940.59,363.20 941.18,363.35 941.76,363.51 942.35,363.67 942.94,363.84 943.53,364.01 944.11,364.19 944.70,364.37 945.29,364.56 945.88,364.74 946.46,364.94 947.05,365.13 947.64,365.33 948.23,365.54 948.81,365.75 949.40,365.96 949.99,366.18 950.58,366.40 951.16,366.62 951.75,366.85 952.34,367.08 952.93,367.32 953.51,367.56 954.10,367.80 954.69,368.05 955.27,368.30 955.86,368.56 956.45,368.82 957.04,369.08 957.62,369.35 958.21,369.62 958.80,369.89 959.39,370.17 959.98,370.45 960.56,370.74 961.15,371.03 961.74,371.32 962.33,371.61 962.91,371.91 963.50,372.22 964.09,372.53 964.67,372.84 965.26,373.15 965.85,373.47 966.44,373.79 967.02,374.12 967.61,374.45 968.20,374.78 968.79,375.11 969.38,375.45 969.96,375.80 970.55,376.14 971.14,376.49 971.73,376.84 972.31,377.20 972.90,377.56 973.49,377.92 974.08,378.28 974.66,378.65 975.25,379.03 975.84,379.40 976.42,379.78 977.01,380.16 977.60,380.54 978.19,380.93 978.78,381.32 979.36,381.72 979.95,382.11 980.54,382.51 981.12,382.92 981.71,383.32 982.30,383.73 982.89,384.14 983.48,384.56 984.06,384.98 984.65,385.40 985.24,385.82 985.83,386.25 986.41,386.68 987.00,387.11 987.59,387.54 988.17,387.98 988.76,388.42 989.35,388.87 989.94,389.31 990.53,389.76 991.11,390.21 991.70,390.66 992.29,391.12 992.88,391.58 993.46,392.04 994.05,392.50 994.64,392.97 995.23,393.44 995.81,393.91 996.40,394.38 996.99,394.85 997.58,395.33 998.16,395.81 998.75,396.29 999.34,396.78 999.92,397.26 1000.51,397.75 1001.10,398.24 1001.69,398.73 1002.28,399.23 1002.86,399.73 1003.45,400.22 1004.04,400.73 1004.62,401.23 1005.21,401.73 1005.80,402.24 1006.39,402.75 1006.98,403.26 1007.56,403.77 1008.15,404.28 1008.74,404.80 1009.33,405.32 1009.91,405.84 1010.50,406.36 1011.09,406.88 1011.67,407.40 1012.26,407.93 1012.85,408.46 1013.44,408.99 1014.02,409.52 1014.61,410.05 1015.20,410.58 1015.79,411.12 1016.38,411.65 1016.96,412.19 1017.55,412.73 1018.14,413.27 1018.73,413.81 1019.31,414.35 1019.90,414.90 1020.49,415.44 1021.08,415.99 1021.66,416.54 1022.25,417.09 1022.84,417.64 1023.42,418.19 1024.01,418.74 1024.60,419.29 1025.19,419.85 1025.78,420.40 1026.36,420.96 1026.95,421.52 1027.54,422.07 1028.12,422.63 1028.71,423.19 1029.30,423.75 1029.89,424.31 1030.48,424.87 1031.06,425.43 1031.65,426.00 1032.24,426.56 1032.83,427.12 1033.41,427.69 1034.00,428.26 1034.59,428.82 1035.17,429.39 1035.76,429.96 1036.35,430.52 1036.94,431.09 1037.53,431.66 1038.11,432.23 1038.70,432.80 1039.29,433.37 1039.88,433.94 1040.46,434.51 1041.05,435.08 1041.64,435.65 1042.22,436.22 1042.81,436.79 1043.40,437.36 1043.99,437.93 1044.58,438.50 1045.16,439.07 1045.75,439.64 1046.34,440.21 1046.92,440.79 1047.51,441.36 1048.10,441.93 1048.69,442.50 1049.28,443.07 1049.86,443.64 1050.45,444.21 1051.04,444.78 1051.62,445.35 1052.21,445.92 1052.80,446.49 1053.39,447.06 1053.97,447.63 1054.56,448.20 1055.15,448.76 1055.74,449.33 1056.33,449.90 1056.91,450.47 1057.50,451.03 1058.09,451.60 1058.67,452.17 1059.26,452.73 1059.85,453.30 1060.44,453.86 1061.03,454.43 1061.61,454.99 1062.20,455.55 1062.79,456.11 1063.38,456.67 1063.96,457.23 1064.55,457.79 1065.14,458.35 1065.72,458.91 1066.31,459.47 1066.90,460.03 1067.49,460.58 1068.08,461.14 1068.66,461.69 1069.25,462.25 1069.84,462.80 1070.42,463.35 1071.01,463.90 1071.60,464.45 1072.19,464.99 1072.78,465.54 1073.36,466.09 1073.95,466.63 1074.54,467.17 1075.12,467.72 1075.71,468.26 1076.30,468.80 1076.89,469.33 1077.47,469.87 1078.06,470.41 1078.65,470.94 1079.24,471.47 1079.83,472.01 1080.41,472.54 1081.00,473.07 1081.59,473.59 1082.17,474.12 1082.76,474.64 1083.35,475.16 1083.94,475.69 1084.53,476.20 1085.11,476.72 1085.70,477.23 1086.29,477.75 1086.88,478.26 1087.46,478.77 1088.05,479.28 1088.64,479.78 1089.23,480.29 1089.81,480.79 1090.40,481.30 1090.99,481.79 1091.58,482.29 1092.16,482.79 1092.75,483.28 1093.34,483.77 1093.92,484.26 1094.51,484.75 1095.10,485.24 1095.69,485.73 1096.28,486.21 1096.86,486.69 1097.45,487.17 1098.04,487.65 1098.62,488.13 1099.21,488.61 1099.80,489.08 1100.39,489.55 1100.97,490.02 1101.56,490.49 1102.15,490.95 1102.74,491.41 1103.33,491.88 1103.91,492.34 1104.50,492.79 1105.09,493.25 1105.67,493.70 1106.26,494.15 1106.85,494.61 1107.44,495.05 1108.03,495.50 1108.61,495.94 1109.20,496.38 1109.79,496.82 1110.38,497.26 1110.96,497.70 1111.55,498.13 1112.14,498.56 1112.72,498.99 1113.31,499.41 1113.90,499.84 1114.49,500.26 1115.08,500.68 1115.66,501.10 1116.25,501.51 1116.84,501.92 1117.42,502.33 1118.01,502.74 1118.60,503.14 1119.19,503.55 1119.78,503.95 1120.36,504.34 1120.95,504.74 1121.54,505.13 1122.12,505.52 1122.71,505.91 1123.30,506.30 1123.89,506.68 1124.47,507.06 1125.06,507.44 1125.65,507.82 1126.24,508.20 1126.83,508.57 1127.41,508.94 1128.00,509.31 1128.59,509.67 1129.17,510.04 1129.76,510.40 1130.35,510.76 1130.94,511.11 1131.53,511.47 1132.11,511.82 1132.70,512.17 1133.29,512.52 1133.88,512.86 1134.46,513.20 1135.05,513.54 1135.64,513.88 1136.22,514.22 1136.81,514.55 1137.40,514.88 1137.99,515.21 1138.58,515.54 1139.16,515.86 1139.75,516.18 1140.34,516.50 1140.92,516.82 1141.51,517.13 1142.10,517.44 1142.69,517.75 1143.28,518.06 1143.86,518.36 1144.45,518.67 1145.04,518.97 1145.62,519.26 1146.21,519.56 1146.80,519.85 1147.39,520.14 1147.98,520.43 1148.56,520.72 1149.15,521.00 1149.74,521.28 1150.33,521.56 1150.91,521.84 1151.50,522.11 1152.09,522.38 1152.67,522.65 1153.26,522.91 1153.85,523.18 1154.44,523.44 1155.03,523.70 1155.61,523.95 1156.20,524.21 1156.79,524.46 1157.38,524.71 1157.96,524.95 1158.55,525.20 1159.14,525.44 1159.72,525.68 1160.31,525.92 1160.90,526.16 1161.49,526.39 1162.08,526.62 1162.66,526.85 1163.25,527.08 1163.84,527.30 1164.42,527.52 1165.01,527.74 1165.60,527.96 1166.19,528.17 1166.78,528.38 1167.36,528.59 1167.95,528.80 1168.54,529.00 1169.12,529.20 1169.71,529.40 1170.30,529.60 1170.89,529.79 1171.47,529.98 1172.06,530.17 1172.65,530.36 1173.24,530.54 1173.83,530.72 1174.41,530.90 1175.00,531.08" fill="none" stroke="#c026d3" stroke-width="4" stroke-linecap="round" stroke-linejoin="round" opacity="1.0" stroke-dasharray="9 6"/>
<text x="723" y="190" font-size="16" fill="#5e6a7d">RMSE: FP 0.064 σx; RP 0.126 σx</text>
<line x1="410" y1="110" x2="444" y2="110" stroke="#111827" stroke-width="4"/><text x="453" y="116" class="legend">exact quantum</text>
<line x1="620" y1="110" x2="654" y2="110" stroke="#2563eb" stroke-width="4"/><text x="663" y="116" class="legend">full propagation</text>
<line x1="830" y1="110" x2="864" y2="110" stroke="#c026d3" stroke-width="4" stroke-dasharray="9 6"/><text x="873" y="116" class="legend">RP-AXE</text>
</svg>
