<svg xmlns="http://www.w3.org/2000/svg" width="1000" height="590" viewBox="0 0 1000 590" role="img" aria-labelledby="title desc">
<title id="title">Published BMA population benchmark</title>
<desc id="desc">Published BMA population benchmark</desc>
<rect width="100%" height="100%" fill="#fbfcfe"/>
<style>
  text { font-family: Inter, ui-sans-serif, -apple-system, BlinkMacSystemFont, "Segoe UI", sans-serif; fill: #172033; }
  .tick { font-size: 17px; fill: #5e6a7d; }
  .axis-label { font-size: 21px; font-weight: 600; }
  .title { font-size: 29px; font-weight: 700; }
  .subtitle { font-size: 17px; fill: #5e6a7d; }
  .legend { font-size: 17px; }
</style>
<text x="95" y="43" class="title">Published BMA population benchmark</text>
<text x="95" y="72" class="subtitle">Digitized exact curve from Mannouch and Kelly Figure 6 versus this split-operator solver</text>
<line x1="95" y1="500.00" x2="960" y2="500.00" stroke="#d9dee8"/>
<text x="81" y="506.00" text-anchor="end" class="tick">0.00</text>
<line x1="95" y1="417.71" x2="960" y2="417.71" stroke="#d9dee8"/>
<text x="81" y="423.71" text-anchor="end" class="tick">0.05</text>
<line x1="95" y1="335.42" x2="960" y2="335.42" stroke="#d9dee8"/>
<text x="81" y="341.42" text-anchor="end" class="tick">0.10</text>
<line x1="95" y1="253.12" x2="960" y2="253.12" stroke="#d9dee8"/>
<text x="81" y="259.12" text-anchor="end" class="tick">0.15</text>
<line x1="95" y1="170.83" x2="960" y2="170.83" stroke="#d9dee8"/>
<text x="81" y="176.83" text-anchor="end" class="tick">0.20</text>
<line x1="95.00" y1="105" x2="95.00" y2="500" stroke="#d9dee8"/>
<text x="95.00" y="529" text-anchor="middle" class="tick">0</text>
<line x1="311.25" y1="105" x2="311.25" y2="500" stroke="#d9dee8"/>
<text x="311.25" y="529" text-anchor="middle" class="tick">10</text>
<line x1="527.50" y1="105" x2="527.50" y2="500" stroke="#d9dee8"/>
<text x="527.50" y="529" text-anchor="middle" class="tick">20</text>
<line x1="743.75" y1="105" x2="743.75" y2="500" stroke="#d9dee8"/>
<text x="743.75" y="529" text-anchor="middle" class="tick">30</text>
<line x1="960.00" y1="105" x2="960.00" y2="500" stroke="#d9dee8"/>
<text x="960.00" y="529" text-anchor="middle" class="tick">40</text>
<polyline points="95.00,142.82 100.41,143.11 105.81,144.02 111.22,145.67 116.62,148.24 122.03,152.06 127.44,157.58 132.84,165.42 138.25,176.34 143.66,191.21 149.06,210.79 154.47,235.53 159.88,265.17 165.28,298.53 170.69,333.42 176.09,367.08 181.50,396.77 186.91,420.60 192.31,437.94 197.72,449.36 203.12,456.17 208.53,459.86 213.94,461.68 219.34,462.50 224.75,462.81 230.16,462.91 235.56,462.92 240.97,462.90 246.38,462.88 251.78,462.87 257.19,462.89 262.59,462.93 268.00,462.99 273.41,463.08 278.81,463.20 284.22,463.35 289.62,463.53 295.03,463.74 300.44,463.97 305.84,464.21 311.25,464.45 316.66,464.67 322.06,464.86 327.47,465.00 332.88,465.10 338.28,465.16 343.69,465.18 349.09,465.18 354.50,465.18 359.91,465.18 365.31,465.18 370.72,465.18 376.12,465.18 381.53,465.16 386.94,465.10 392.34,464.90 397.75,464.40 403.16,463.24 408.56,460.74 413.97,455.84 419.38,447.13 424.78,433.12 430.19,412.79 435.59,386.11 441.00,354.39 446.41,320.00 451.81,285.81 457.22,254.36 462.62,227.35 468.03,205.46 473.44,188.55 478.84,175.96 484.25,166.85 489.66,160.39 495.06,155.90 500.47,152.83 505.88,150.81 511.28,149.58 516.69,148.99 522.09,148.94 527.50,149.43 532.91,150.52 538.31,152.32 543.72,155.09 549.12,159.17 554.53,165.09 559.94,173.50 565.34,185.22 570.75,201.06 576.16,221.71 581.56,247.36 586.97,277.45 592.38,310.45 597.78,343.96 603.19,375.26 608.59,401.98 614.00,422.75 619.41,437.44 624.81,446.91 630.22,452.49 635.62,455.54 641.03,457.08 646.44,457.81 651.84,458.14 657.25,458.29 662.66,458.37 668.06,458.45 673.47,458.54 678.88,458.65 684.28,458.77 689.69,458.89 695.09,459.00 700.50,459.10 705.91,459.21 711.31,459.36 716.72,459.58 722.12,459.90 727.53,460.31 732.94,460.81 738.34,461.38 743.75,461.96 749.16,462.52 754.56,463.01 759.97,463.40 765.38,463.66 770.78,463.81 776.19,463.85 781.59,463.82 787.00,463.75 792.41,463.65 797.81,463.54 803.22,463.41 808.62,463.25 814.03,463.00 819.44,462.55 824.84,461.64 830.25,459.76 835.66,456.07 841.06,449.34 846.47,438.14 851.88,421.21 857.28,398.09 862.69,369.48 868.09,337.29 873.50,304.18 878.91,272.82 884.31,245.21 889.72,222.42 895.12,204.57 900.53,191.19 905.94,181.48 911.34,174.60 916.75,169.81 922.16,166.53 927.56,164.34 932.97,162.94 938.38,162.14 943.78,161.83 949.19,161.95 954.59,162.51 960.00,163.59" fill="none" stroke="#2563eb" stroke-width="5" stroke-linecap="round" stroke-linejoin="round" opacity="1.0"/>
<polyline points="95.00,143.04 116.62,148.29 138.25,171.80 159.88,260.17 181.50,395.00 203.12,455.53 224.75,459.79 246.38,460.07 268.00,463.25 289.62,463.25 311.25,463.66 332.88,464.22 354.50,464.80 376.12,464.88 397.75,464.22 419.38,439.42 441.00,364.86 462.62,217.56 484.25,167.71 505.88,151.03 527.50,149.57 549.12,159.71 570.75,203.75 592.38,326.17 614.00,429.30 635.62,455.41 657.25,458.20 678.88,458.67 700.50,459.33 722.12,459.99 743.75,461.95 765.38,462.77 787.00,463.58 808.62,462.92 830.25,459.33 851.88,423.25 873.50,294.75 895.12,198.25 916.75,169.52 938.38,165.95 960.00,162.29" fill="none" stroke="#111827" stroke-width="4" stroke-linecap="round" stroke-linejoin="round" opacity="1.0" stroke-dasharray="9 7"/>
<line x1="95" y1="500" x2="960" y2="500" stroke="#172033" stroke-width="2"/>
<line x1="95" y1="105" x2="95" y2="500" stroke="#172033" stroke-width="2"/>
<text x="527.5" y="565" text-anchor="middle" class="axis-label">time (fs)</text>
<text x="27" y="302.5" text-anchor="middle" class="axis-label" transform="rotate(-90 27 302.5)">upper population</text>
<text x="655" y="128" font-size="17">RMSE 0.0027; max |error| 0.0096</text>
<line x1="655" y1="154" x2="690" y2="154" stroke="#2563eb" stroke-width="5"/><text x="700" y="160" class="legend">split operator</text>
<line x1="815" y1="154" x2="850" y2="154" stroke="#111827" stroke-width="4" stroke-dasharray="9 7"/><text x="860" y="160" class="legend">paper</text>
</svg>
